<svg width="301" height="306" viewBox="0 0 301 306" fill="none" xmlns="http://www.w3.org/2000/svg">
<path d="M0.128601 291.369C0.128601 291.369 2.31703 291.346 6.85274 288.945C15.6458 284.292 18.7493 280.706 18.7493 280.706C18.7493 280.706 28.3601 271.948 30.6458 270.044C35.301 266.167 38.9217 266.167 42.0252 266.167H42.061C45.147 266.167 47.5334 266.167 52.8872 270.044C56.5179 272.673 59.6114 277.314 62.7148 282.16C70.4734 294.276 71.5079 303 74.6114 303C77.7148 303 81.3355 291.853 81.3355 291.853L93.7493 245.811L99.9562 218.186L106.68 182.807C123.64 99.7861 133.577 2.51728 150.129 3.00193C166.68 2.51728 176.617 99.7861 193.577 182.807L200.301 218.186L206.508 245.811L218.922 291.853C218.922 291.853 222.542 303 225.646 303C228.749 303 229.784 294.276 237.542 282.16C240.646 277.314 243.739 272.673 247.37 270.044C252.724 266.167 255.11 266.167 258.196 266.167H258.232C261.335 266.167 264.956 266.167 269.611 270.044C271.897 271.948 281.508 280.706 281.508 280.706C281.508 280.706 284.611 284.292 293.404 288.945C297.94 291.346 300.129 291.369 300.129 291.369" stroke="black" stroke-width="6"/>
</svg>
