<svg xmlns="http://www.w3.org/2000/svg" viewBox="0 0 800 800"><path fill="none" stroke="#388c46" class="dcg-svg-curve" paint-order="fill stroke markers" d="M0 623.325h0L.781 551.4l1.758-221.91 1.172-118.493.586-31.759.39-8.5.119-.487.272 2.582.39 12.561.587 37.068.976 99.992 2.54 286.954.585 30.892.39 8.251.118.467.274-2.534.39-12.258.586-36.132.977-97.41 2.539-279.376.586-30.044.39-8.009.116-.446.275 2.485.39 11.961.586 35.215.977 94.882 2.54 271.956.585 29.215.39 7.772.116.427.275-2.438.39-11.669.587-34.315.976-92.406 2.54-264.693.585-28.405.391-7.54.114-.409.277 2.39.39 11.383.586 33.434.977 89.98 2.539 257.586.586 27.613.39 7.315.113.39.278-2.343.39-11.102.587-32.57.976-87.605 2.54-250.63.585-26.84.39-7.094.113-.373.278 2.297.391 10.825.586 31.725.977 85.278 2.539 243.826.586 26.082.39 6.88.111.356.28-2.25.39-10.556.586-30.895.977-83.001 2.539-237.168.586-25.343.39-6.67.11-.34.281 2.205.39 10.289.587 30.083.976 80.772 2.54 230.656.585 24.62.39 6.467.11.325.282-2.161.39-10.029.586-29.287.977-78.591 2.539-224.286.586-23.914.39-6.268.108-.31.283 2.117.39 9.773.586 28.508.977 76.456 2.54 218.056.585 23.225.39 6.074.108.296.283-2.073.39-9.523.587-27.745.976-74.366 2.344-201.086.781-33.43.391-5.886.106-.282.285 2.03.39 9.277.586 26.998.977 72.322 2.344 195.442.78 32.46.391 5.702.105.27.286-1.988.39-9.036.587-26.267.976-70.322 2.344-189.925.781-31.514.39-5.522.105-.257.286 1.946.391 8.8.586 25.55.977 68.367 2.343 184.532.781 30.59.391 5.347.103.244.288-1.904.39-8.568.586-24.85.977-66.454 2.344-179.261.78-29.687.391-5.177.102-.233.29 1.863.39 8.341.586 24.165.976 64.583 2.344 174.11.781 28.806.39 5.012.102.221.29-1.822.39-8.119.586-23.494.977-62.753 2.343-169.08.782-27.945.39-4.85.1-.21.29 1.782.391 7.9.586 22.84.977 60.964 2.344 164.162.781 27.106.39 4.694.1.2.291-1.743.39-7.688.587-22.196.976-59.217 2.344-159.36.781-26.287.391-4.54.098-.191.293 1.704.39 7.479.586 21.568.977 57.509 2.344 154.67.78 25.488.488 4.573.099-.188.39-4.407.586-17.067.782-39.272 3.32-195.378.681-8.64.1.187.39 4.291.587 16.583.78 38.131 3.321 189.551.68 8.358.101-.185.391-4.178.586-16.11.781-37.016 3.32-183.863.68-8.083.102.183.39 4.067.586 15.647.782 35.927 3.32 178.311.678 7.817.103-.181.39-3.959.587-15.195.781-34.863 3.32-172.893.678-7.557.104.18.39 3.851.586 14.753.781 33.824 3.32 167.607.677 7.304.105-.177.39-3.748.587-14.32.78-32.81 3.321-162.449.675-7.059.106.176.39 3.645.587 13.897.781 31.82 3.32 157.418.391 5.604.284 1.216.107-.173.39-3.545.586-13.485.782-30.853 3.32-152.512.39-5.418.283-1.17.108.172.39 3.446.587 13.082.78 29.91 3.321 147.727.39 5.238.282 1.124.11-.169.39-3.35.586-12.688.781-28.988 3.32-143.064.391-5.062.28-1.08.11.166.391 3.256.586 12.304.782 28.09 3.32 138.516.39 4.891.28 1.039.111-.165.39-3.163.587-11.928.781-27.214 3.32-134.085.39-4.725.28-.998.112.162.39 3.073.586 11.562.781 26.359 3.32 129.767.391 4.563.278.959.113-.16.39-2.984.587-11.205.78-25.524 3.321-125.561.39-4.406.277-.92.114.157.39 2.898.587 10.855.781 24.712 3.32 121.462.391 4.254.275.884.116-.156.39-2.813.586-10.514.782-23.92 3.32-117.471.39-4.105.275-.848.116.153.39 2.73.587 10.182.78 23.147 3.321 113.585.39 3.96.274.815.117-.151.391-2.649.586-9.858.781-22.395 3.32-109.801.391-3.82.272-.781.119.148.39 2.57.586 9.542.782 21.661 3.32 106.119.39 3.684.271.749.12-.146.39-2.492.587-9.234.781-20.948 3.32-102.534.39-3.552.27-.718.122.144.39 2.416.586 8.934.781 20.251 3.125 96.294.586 6.177.27.688.12-.141.392-2.342.586-8.642.78-19.574 3.126-92.998.586-5.955.267-.66.123.14.39 2.269.587 8.356.781 18.915 3.125 89.793.586 5.74.267.631.124-.136.39-2.199.586-8.079.781-18.272 3.125-86.676.586-5.53.266-.606.125.135.39 2.129.587 7.808.78 17.648 3.126 83.646.586 5.327.264.579.126-.132.391-2.061.586-7.545.781-17.04 3.125-80.7.586-5.13.264-.555.127.13.39 1.995.586 7.289.782 16.449 3.125 77.836.586 4.94.262.53.128-.127.39-1.931.587-7.039.781-15.874 3.125-75.055.586-4.754.261-.507.13.124.39 1.87.586 6.795.781 15.315 3.125 72.352.586 4.575.26.484.13-.122.392-1.807.586-6.56.78-14.77 3.126-69.729.586-4.4.259-.463.131.12.39 1.747.587 6.33.781 14.243 3.125 67.179.586 4.232.258.442.133-.117.39-1.69.586-6.105.782-13.73 3.125-64.705.585-4.069.257-.422.134.114.39 1.633.587 5.888.78 13.232 3.126 62.304.586 3.91.255.403.135-.112.391-1.578.586-5.676.781-12.748 3.125-59.973.586-3.757.255-.385.136.11.39 1.523.586 5.472.782 12.277 3.125 57.713.586 3.608.253.368.137-.108.39-1.47.587-5.273.781-11.82 3.125-55.521.586-3.465.252-.35.139.105.39 1.42.586 5.078.781 11.377 3.125 53.395.586 3.326.252.334.139-.103.39-1.37.587-4.89.78-10.947 3.126-51.334.586-3.191.25-.319.336.572.39 2.07.586 5.714.977 14.876 2.344 39.008.78 6.158.445.963.337-.553.39-1.994.587-5.497.976-14.302 2.344-37.478.781-5.91.443-.92.338.535.391 1.92.586 5.286.976 13.746 2.344 35.995.781 5.67.443.88.339-.517.39-1.848.586-5.082.977-13.207 2.344-34.56.78-5.438.442-.84.34.5.39 1.777.587 4.885.976 12.684 2.344 33.171.781 5.213.44.802.341-.483.391-1.71.586-4.692.977-12.179 2.343-31.826.782-4.995.438-.766.343.466.39 1.644.586 4.507.977 11.689 2.344 30.525.781 4.785.438.73.343-.45.39-1.58.587-4.326.976-11.215 2.344-29.266.781-4.582.437-.697.345.434.39 1.518.586 4.152.977 10.756 2.344 28.049.78 4.386.436.665.346-.42.39-1.457.587-3.983.976-10.312 2.344-26.872.781-4.198.434-.633.347.404.391 1.4.586 3.82.977 9.882 2.343 25.735.781 4.015.433.603.349-.39.39-1.342.586-3.662.977-9.468 2.344-24.636.78-3.839.433-.574.35.376.39 1.288.586 3.508.976 9.067 2.344 23.575.781 3.669.43.546.351-.362.586-2.165.782-5.527 1.367-13.892 1.367-12.899.781-4.27.625-1.097.352.349.586 2.074.781 5.29 1.367 13.29 1.367 12.33.782 4.08.623 1.045.353-.336.586-1.987.781-5.061 1.368-12.707 1.367-11.783.781-3.895.622-.995.355.323.586 1.902.78 4.84 1.368 12.145 1.367 11.256.781 3.717.622.947.355-.31.586-1.821.781-4.627 1.367-11.603 1.368-10.746.78-3.547.62-.9.357.298.586 1.741.782 4.422 1.367 11.08 1.367 10.255.781 3.382.619.856.358-.286.586-1.665.78-4.223 1.368-10.575 1.367-9.784.782-3.223.617-.814.36.275.585 1.592.781 4.031 1.368 10.09 1.367 9.328.78 3.07.617.774.36-.265.586-1.52.782-3.847 1.367-9.62 1.367-8.891.781-2.924.615-.734.362.254.586 1.45.781 3.67 1.367 9.17 1.367 8.469.782 2.783.614.696.362-.243.586-1.385.781-3.498 1.368-8.736 1.367-8.063.781-2.647.613-.661.364.233.586 1.321.78 3.333 1.368 8.32 1.367 7.672.781 2.517.612.626.365-.223.586-1.26.781-3.174 1.563-9.099 1.172-6.116.78-2.392.611-.593.366.213.586 1.2.782 3.022 1.562 8.655 1.367 6.53.782 1.857.585.216.586-.815.782-2.521 1.172-5.841 1.757-8.752.782-2.157.607-.532.37.196.585 1.088.781 2.733 1.563 7.818 1.367 5.892.781 1.67.586.19.586-.739.781-2.278 1.172-5.273 1.758-7.89.781-1.94.606-.475.37.179.587.984.781 2.467 1.563 7.047 1.367 5.302.781 1.5.586.168.586-.669.781-2.055 1.172-4.75 1.758-7.095.781-1.741.603-.424.569.376.781 1.656.977 3.466 2.343 8.873.782 1.344.586.147.586-.604.78-1.85 1.173-4.267 1.758-6.366.78-1.56.6-.377.573.34.78 1.49 1.173 3.834 1.953 6.763.781 1.474.599.356.573-.324.781-1.411 1.172-3.629 1.953-6.397.782-1.392.597-.335.574.307.782 1.337 1.172 3.432 1.953 6.046.78 1.315.597.315.576-.292.781-1.264 1.172-3.245 1.953-5.71.977-1.403.586-.105.586.463.976 1.872 1.953 5.666 1.172 2.59.781.723.586-.083.782-.919.976-2.18 2.734-6.807.782-.682.586.08.78.868 1.173 2.554 2.343 5.635.977.925.586-.076.781-.82 1.172-2.407 2.344-5.308.976-.87.586.073.782.773 1.172 2.268 2.343 4.996.977.817.586-.07.781-.728 1.172-2.135 2.344-4.698.976-.767.586.066.781.686 1.172 2.009 2.344 4.415.977.719.78-.167.782-.792 1.367-2.404 1.953-3.38.977-.673.781.158.781.744 1.563 2.623 1.758 2.804.976.631.782-.149.976-.947 1.953-3.223 1.367-1.8.972-.425.786.277.977 1.023 3.71 4.785.782-.004.781-.502 1.367-1.754 2.344-3.062.969-.37.789.245.977.897 3.71 4.185.782-.005.976-.61 1.563-1.889 1.953-2.148.966-.32.987.33 1.172 1.1 2.93 3.07.976.178.977-.424 1.367-1.337 2.344-2.323.962-.277.99.288 1.173.958 2.93 2.664.976.152.976-.369 1.368-1.16 2.343-2.012.96-.238.994.251 1.367 1.004 2.539 2.048 1.172.21 1.172-.432 1.757-1.403 1.758-1.221 1.172-.194 1.172.4 1.953 1.459 1.758 1.044 1.172.085 1.172-.454 4.273-2.32 1.195.265 1.758 1.07 2.149 1.162 1.172.07 1.367-.49 3.906-1.875 1.367.223 1.953 1.028 1.953.874 1.368.029 1.562-.577 3.125-1.364 1.367.047 1.758.683 2.54 1.032 1.366.024 1.758-.575 2.93-1.066 1.562.081 2.149.784 2.148.649 1.563-.075 2.148-.718 2.344-.611 1.562.127 5.664 1.095 2.54-.723 2.148-.394 1.953.242 4.297.854 2.148-.362 3.32-.635 2.15.243 4.1.662 2.344-.34 3.27-.48 2.394.273 3.711.469 2.735-.35 1.367-.22" stroke-linecap="round" stroke-linejoin="round" stroke-miterlimit="10" stroke-width="2.5" stroke-opacity=".9"/></svg>