<svg width="302" height="202" viewBox="0 0 302 202" fill="none" xmlns="http://www.w3.org/2000/svg">
<path d="M1 102.511V67.5205L1.52677 18.0212L1.79016 4.75426L1.96545 1.20347L2.01894 1.00003L2.14119 2.07863L2.31648 7.32586L2.58032 22.8106L3.01899 64.5813L4.16063 184.453L4.42357 197.358L4.59886 200.805L4.6519 201L4.77505 199.941L4.95034 194.821L5.21373 179.727L5.65286 139.035L6.79405 22.3286L7.05743 9.778L7.23272 6.43232L7.28486 6.24601L7.40846 7.28409L7.58376 12.2807L7.84714 26.9914L8.28627 66.6274L9.42791 180.234L9.69085 192.438L9.86614 195.685L9.91827 195.863L10.0419 194.845L10.2172 189.97L10.481 175.636L10.9197 137.034L12.0613 26.4613L12.3243 14.5954L12.5 11.4456L12.5512 11.2748L12.6757 12.2732L12.851 17.0283L13.1144 30.995L13.5535 68.5832L14.6947 176.187L14.9581 187.722L15.1334 190.778L15.1842 190.941L15.3092 189.962L15.4844 185.324L15.7483 171.719L16.187 135.122L17.3286 30.4244L17.5915 19.2122L17.7668 16.2488L17.8176 16.093L17.9426 17.0525L18.1183 21.5745L18.3817 34.8273L18.8208 70.4514L19.962 172.307L20.2254 183.203L20.4007 186.077L20.4506 186.225L20.5764 185.286L20.7517 180.876L21.0151 167.97L21.4542 133.297L22.5954 34.2225L22.8588 23.6357L23.0341 20.8493L23.0835 20.7073L23.2098 21.6284L23.3851 25.9266L23.649 38.4934L24.0876 72.2351L25.2293 168.589L25.4922 178.874L25.6675 181.576L25.717 181.711L25.8437 180.809L26.019 176.619L26.2824 164.385L26.7215 131.554L27.8627 37.861L28.1261 27.8711L28.3014 25.2527L28.3499 25.1232L28.4771 26.0076L28.6524 30.0902L28.9158 41.9991L29.3549 73.9378L30.4966 165.028L30.7595 174.73L30.9348 177.268L30.9833 177.391L31.1105 176.525L31.2858 172.547L31.5497 160.957L31.9883 129.892L33.0419 45.8899L33.3929 31.9249L33.5686 29.4661L33.6163 29.3483L33.7444 30.1963L33.9197 34.0717L34.1831 45.3498L34.6222 75.5616L35.6757 157.205L36.0263 170.765L36.2021 173.147L36.2492 173.26L36.3778 172.43L36.5531 168.655L36.8169 157.682L37.2556 128.306L38.3091 48.9666L38.6602 35.8019L38.8355 33.4952L38.8827 33.3878L39.0112 34.2007L39.187 37.8768L39.4503 48.5501L39.8895 77.1097L40.9426 154.196L41.2936 166.975L41.4693 169.208L41.5156 169.31L41.6451 168.515L41.8204 164.936L42.0837 154.555L42.5229 126.794L43.5764 51.91L43.927 39.5085L44.1027 37.3459L44.1486 37.2486L44.2789 38.0268L44.4542 41.5112L44.7176 51.6059L45.1563 78.5847L46.2098 151.317L46.5609 163.351L46.7362 165.445L46.782 165.537L46.9123 164.776L47.0876 161.384L47.351 151.57L47.7901 125.355L48.8432 54.7239L49.1947 43.0501L49.37 41.0241L49.415 40.9364L49.5453 41.6808L49.721 44.9809L49.9844 54.5221L50.4236 79.9892L51.4771 148.566L51.8281 159.889L52.0034 161.85L52.0484 161.934L52.1792 161.206L52.3545 157.994L52.6183 148.722L53.057 123.985L54.1105 57.4137L54.4616 46.4326L54.6373 44.536L54.6813 44.4562L54.813 45.1681L54.9883 48.2923L55.2517 57.3022L55.6908 81.3259L56.7444 145.938L57.095 156.585L57.3143 158.495L57.3588 158.417L57.5341 156.576L57.7975 149.446L58.149 133.041L59.6412 51.4237L59.9473 47.8144L59.9922 47.8926L60.1675 49.6851L60.4313 56.6125L60.7819 72.5413L62.2746 151.724L62.5802 155.216L62.6256 155.138L62.8014 153.393L63.0648 146.663L63.4158 131.2L64.908 54.3934L65.2136 51.0168L65.2595 51.0933L65.4348 52.7922L65.6982 59.3286L66.0496 74.3367L67.5419 148.824L67.8466 152.09L67.8929 152.014L68.0682 150.36L68.332 144.013L68.6831 129.449L70.1753 57.2249L70.48 54.068L70.5268 54.1432L70.7021 55.7519L70.9654 61.9148L71.3165 76.0445L72.8087 146.061L73.113 149.112L73.1602 149.038L73.3355 147.472L73.5993 141.49L73.9499 127.784L75.4426 59.9226L75.7459 56.9738L75.7936 57.0473L75.9689 58.57L76.2327 64.3753L76.5837 77.6678L78.076 143.428L78.2517 145.769L78.3794 146.277L78.4274 146.204L78.6027 144.723L78.8661 139.09L79.2176 126.202L80.7098 62.4913L80.8851 60.228L81.0123 59.7393L81.0609 59.8111L81.2361 61.2506L81.5 66.7155L81.8506 79.2101L83.3432 140.922L83.5185 143.11L83.6453 143.579L83.6947 143.509L83.87 142.109L84.1334 136.809L84.4844 124.699L85.9767 64.9359L86.1524 62.8213L86.2782 62.3702L86.3277 62.4395L86.5034 63.7997L86.7668 68.9395L87.1183 80.6739L88.6105 138.538L88.7858 140.581L88.9117 141.015L88.9615 140.946L89.1368 139.624L89.4007 134.642L89.7517 123.273L91.2439 67.2607L91.4192 65.2868L91.5451 64.8699L91.5954 64.9376L91.7707 66.2213L92.0341 71.0512L92.3851 82.0624L93.8773 136.271L94.0531 138.177L94.178 138.578L94.2288 138.511L94.4041 137.265L94.6679 132.584L95.0185 121.921L96.5112 69.4697L96.6865 67.6291L96.811 67.2448L96.8622 67.3104L97.0375 68.521L97.3014 73.0555L97.6524 83.3787L99.1446 134.118L99.3204 135.895L99.444 136.265L99.4961 136.199L99.6714 135.024L99.9348 130.632L100.286 120.64L101.778 71.5676L101.954 69.8527L102.077 69.4985L102.13 69.5624L102.305 70.7028L102.569 74.9563L102.919 84.6257L104.412 132.075L104.587 133.729L104.71 134.069L104.763 134.006L104.939 132.9L105.202 128.782L105.553 119.426L107.045 73.5581L107.221 71.9623L107.343 71.6361L107.397 71.6979L107.572 72.7715L107.835 76.7575L108.187 85.8062L109.679 130.136L109.854 131.675L109.976 131.988L110.03 131.927L110.205 130.886L110.469 127.029L110.82 118.278L112.313 75.4454L112.488 73.9616L112.609 73.6617L112.664 73.7218L112.839 74.7311L113.103 78.4632L113.454 86.9228L114.858 127.149L115.122 129.729L115.243 130.016L115.297 129.958L115.473 128.979L115.737 125.369L116.087 117.192L117.492 78.3433L117.756 75.8556L117.876 75.5799L117.931 75.6384L118.106 76.5863L118.37 80.0769L118.721 87.9785L120.126 125.489L120.389 127.886L120.509 128.15L120.565 128.093L120.74 127.175L121.003 123.8L121.354 116.167L122.759 79.9587L123.022 77.6486L123.142 77.3954L123.198 77.4518L123.373 78.3412L123.637 81.6029L123.988 88.9752L125.393 123.917L125.656 126.143L125.775 126.385L125.832 126.329L126.007 125.469L126.271 122.317L126.622 115.198L128.026 81.4868L128.29 79.3438L128.408 79.1119L128.465 79.1662L128.641 79.9996L128.904 83.0445L129.256 89.9159L130.66 122.431L130.924 124.495L131.041 124.716L131.099 124.663L131.274 123.856L131.538 120.916L131.889 114.285L133.294 82.9313L133.557 80.9454L133.674 80.7336L133.733 80.7854L133.908 81.5666L134.171 84.4051L134.522 90.8028L135.927 121.027L136.19 122.938L136.307 123.14L136.366 123.089L136.542 122.335L136.805 119.594L137.156 113.424L138.561 84.2957L138.824 82.4576L138.941 82.2642L139 82.3143L139.175 83.0441L139.439 85.6884L139.79 91.6383L141.194 119.702L141.458 121.469L141.574 121.654L141.633 121.605L141.809 120.899L142.072 118.349L142.424 112.613L143.828 85.5836L144.091 83.8838L144.207 83.7075L144.267 83.7551L144.442 84.4373L144.706 86.8969L145.057 92.4245L146.462 118.451L146.725 120.085L146.84 120.253L146.9 120.206L147.076 119.547L147.339 117.176L147.69 111.851L149.095 86.7975L149.358 85.2281L149.473 85.0672L149.534 85.1132L149.709 85.7494L149.973 88.0353L150.324 93.1639L151.729 117.273L151.992 118.78L152.106 118.934L152.167 118.889L152.343 118.275L152.607 116.072L152.958 111.134L154.362 87.9409L154.626 86.4934L154.739 86.3472L154.801 86.391L154.977 86.9842L155.24 89.1055L155.591 93.8581L156.996 116.163L157.259 117.553L157.372 117.692L157.435 117.649L157.61 117.077L157.874 115.034L158.224 110.461L159.629 89.017L159.893 87.6839L160.005 87.5507L160.156 87.7896L160.332 88.6544L160.595 91.0413L161.034 97.2556L162.088 113.551L162.438 116.123L162.638 116.526L162.79 116.295L162.965 115.462L163.229 113.165L163.667 107.191L164.721 91.5347L165.072 89.0658L165.271 88.6815L165.423 88.905L165.599 89.7071L165.862 91.9152L166.301 97.6575L167.354 112.694L167.705 115.063L167.905 115.43L168.057 115.214L168.232 114.442L168.496 112.319L168.935 106.802L169.988 92.3651L170.339 90.0935L170.538 89.7426L170.69 89.9514L170.866 90.6938L171.129 92.7344L171.568 98.033L172.622 111.89L172.973 114.068L173.171 114.403L173.324 114.201L173.5 113.486L173.763 111.526L174.202 106.439L175.255 93.1438L175.607 91.0572L175.803 90.7372L175.958 90.9319L176.133 91.6186L176.396 93.5014L176.835 98.3843L177.889 111.136L178.24 113.135L178.437 113.44L178.591 113.252L178.766 112.592L179.03 110.785L179.469 106.1L180.522 93.874L180.873 91.9599L181.07 91.6688L181.225 91.8501L181.4 92.4842L181.664 94.2187L182.103 98.7119L183.156 110.429L183.507 112.261L183.703 112.539L183.858 112.364L184.034 111.755L184.297 110.091L184.736 105.783L185.79 94.5579L186.141 92.8042L186.336 92.5398L186.492 92.7085L186.667 93.2934L186.931 94.8891L187.37 99.0172L188.423 109.768L188.774 111.445L188.969 111.697L189.126 111.534L189.301 110.973L189.564 109.444L190.003 105.488L191.057 95.197L191.408 93.5933L191.602 93.3535L191.759 93.5106L191.935 94.0486L192.198 95.5141L192.637 99.3017L193.69 109.15L194.041 110.683L194.235 110.911L194.392 110.759L194.656 109.855L195.007 107.546L195.622 101.743L196.236 96.3546L196.587 94.5708L196.868 94.1125L197.026 94.2583L197.29 95.1247L197.641 97.3346L198.255 102.886L198.87 108.037L199.221 109.741L199.501 110.178L199.66 110.038L199.923 109.208L200.274 107.093L200.889 101.785L201.503 96.8629L201.854 95.2358L202.134 94.8202L202.294 94.9551L202.557 95.7497L202.908 97.7715L203.522 102.845L204.137 107.547L204.488 109.1L204.767 109.495L204.927 109.366L205.19 108.605L205.541 106.672L206.156 101.825L206.771 97.3362L207.121 95.8545L207.4 95.4786L207.56 95.603L207.824 96.3303L208.175 98.1776L208.79 102.806L209.404 107.09L209.755 108.503L210.033 108.86L210.194 108.741L210.458 108.045L210.808 106.281L211.423 101.864L212.038 97.7765L212.389 96.4302L212.666 96.0901L212.828 96.205L213.091 96.87L213.442 98.554L214.057 102.769L214.671 106.666L215.022 107.948L215.299 108.271L215.461 108.161L215.724 107.526L216.076 105.919L216.69 101.9L217.305 98.1859L217.656 96.9645L217.932 96.6578L218.095 96.7639L218.358 97.3697L218.709 98.9028L219.324 102.733L219.938 106.271L220.29 107.434L220.566 107.725L220.728 107.623L220.992 107.045L221.343 105.583L221.958 101.934L222.572 98.5657L222.923 97.4599L223.199 97.1838L223.362 97.2811L223.626 97.8329L223.976 99.2253L224.591 102.701L225.205 105.906L225.556 106.957L225.832 107.219L225.996 107.126L226.259 106.599L226.61 105.273L227.313 101.472L227.839 98.9174L228.19 97.9182L228.465 97.6704L228.629 97.7594L228.892 98.2607L229.244 99.5231L229.946 103.139L230.56 105.866L230.912 106.642L231.175 106.732L231.438 106.392L231.79 105.339L232.316 102.899L233.106 99.2428L233.458 98.3417L233.73 98.1195L233.897 98.2014L234.16 98.6559L234.511 99.7976L235.213 103.063L235.828 105.525L236.179 106.222L236.442 106.302L236.705 105.993L237.056 105.041L237.583 102.839L238.373 99.5427L238.724 98.7323L238.997 98.5339L239.163 98.6087L239.427 99.0197L239.778 100.05L240.481 102.994L241.095 105.209L241.446 105.836L241.709 105.906L241.973 105.626L242.324 104.768L242.851 102.784L243.641 99.8197L243.992 99.0924L244.263 98.9153L244.519 99.0724L244.87 99.7641L245.309 101.212L246.362 104.919L246.713 105.48L246.977 105.541L247.24 105.289L247.591 104.516L248.118 102.734L248.908 100.075L249.259 99.4229L249.528 99.2654L249.786 99.4074L250.136 100.03L250.664 101.631L251.541 104.457L251.892 105.072L252.162 105.221L252.419 105.086L252.77 104.496L253.297 102.98L254.175 100.308L254.526 99.7266L254.795 99.5866L255.053 99.7149L255.404 100.273L255.931 101.707L256.809 104.233L257.159 104.782L257.428 104.914L257.686 104.792L258.037 104.264L258.564 102.908L259.442 100.523L259.881 99.9367L260.145 99.8928L260.408 100.086L260.847 100.868L261.724 103.235L262.251 104.317L262.602 104.619L262.866 104.584L263.217 104.201L263.656 103.29L264.885 100.446L265.236 100.161L265.499 100.195L265.85 100.557L266.377 101.624L267.43 103.978L267.87 104.365L268.133 104.333L268.484 103.99L269.011 102.985L270.064 100.768L270.503 100.404L270.766 100.435L271.118 100.758L271.645 101.705L272.698 103.792L273.137 104.133L273.4 104.104L273.751 103.8L274.278 102.908L275.332 100.946L275.77 100.625L276.034 100.653L276.385 100.939L276.911 101.778L277.965 103.623L278.404 103.923L278.755 103.853L279.106 103.523L279.721 102.518L280.598 101.106L281.037 100.825L281.389 100.891L281.74 101.202L282.442 102.298L283.232 103.469L283.671 103.733L284.022 103.67L284.461 103.275L285.339 101.928L285.953 101.177L286.39 100.999L286.743 101.115L287.183 101.542L288.85 103.541L289.202 103.539L289.553 103.33L290.167 102.597L291.221 101.318L291.656 101.163L292.011 101.265L292.45 101.64L294.117 103.388L294.469 103.386L294.908 103.132L295.61 102.342L296.488 101.445L296.922 101.311L297.366 101.449L297.892 101.909C297.892 101.909 298.992 103.036 299.209 103.191C299.427 103.346 299.924 103.366 300.326 102.929C300.728 102.491 300.775 102.511 301 102.511" stroke="black" stroke-width="2" stroke-miterlimit="10" stroke-linejoin="round"/>
</svg>
