<svg width="102" height="42" viewBox="0 0 102 42" fill="none" xmlns="http://www.w3.org/2000/svg">
<path d="M91.5806 11.6307L90.629 11.9382L90.6315 11.9458L91.5806 11.6307ZM80.4408 1.00006L80.4521 6.10352e-05H80.4408V1.00006ZM10.4195 11.6307L11.3685 11.9458L11.371 11.9382L10.4195 11.6307ZM21.5592 1.00006V-2.98023e-06L21.5479 0.000125051L21.5592 1.00006ZM98.6974 37.5766L91.4622 28.5775L87.2862 39.3429L98.6974 37.5766ZM101 41.0001H102C102 40.8468 101.966 40.6884 101.951 40.6179C101.928 40.5138 101.898 40.3893 101.861 40.2514C101.789 39.9741 101.684 39.6067 101.554 39.1675C101.294 38.2873 100.924 37.0903 100.482 35.6885C99.5973 32.8834 98.4186 29.2397 97.241 25.6302C96.063 22.02 94.8852 18.4415 94.0019 15.7656C93.5603 14.4276 93.1922 13.3152 92.9346 12.5372C92.8058 12.1483 92.7045 11.8429 92.6355 11.6348C92.601 11.5307 92.5745 11.4509 92.5567 11.3972C92.5478 11.3703 92.541 11.3499 92.5365 11.3362C92.5342 11.3294 92.5325 11.3242 92.5313 11.3208C92.5308 11.3191 92.5303 11.3178 92.53 11.3169C92.5299 11.3165 92.5298 11.3161 92.5297 11.3159C92.5296 11.3157 92.5296 11.3156 91.5806 11.6307C90.6315 11.9458 90.6315 11.9459 90.6316 11.9461C90.6317 11.9463 90.6318 11.9467 90.6319 11.9471C90.6322 11.9479 90.6326 11.9492 90.6332 11.9509C90.6343 11.9544 90.636 11.9595 90.6383 11.9663C90.6428 11.9799 90.6496 12.0002 90.6585 12.0271C90.6763 12.0807 90.7027 12.1604 90.7372 12.2643C90.8061 12.4722 90.9073 12.7773 91.036 13.166C91.2935 13.9435 91.6613 15.0552 92.1027 16.3925C92.9856 19.0671 94.1627 22.6434 95.3396 26.2506C96.5168 29.8584 97.693 33.4946 98.5745 36.29C99.0155 37.6884 99.3813 38.8718 99.6363 39.7344C99.764 40.1667 99.8619 40.5114 99.927 40.7594C99.9598 40.8843 99.982 40.9759 99.9953 41.0378C100.016 41.1333 100 41.0908 100 41.0001H101ZM91.5806 11.6307L92.5321 11.3232C91.1795 7.13764 89.8249 4.28186 87.925 2.48796C85.9648 0.637036 83.5601 0.0352996 80.4521 0.000125051L80.4408 1.00006L80.4295 2C83.2892 2.03236 85.1076 2.57841 86.5519 3.94215C88.0566 5.36291 89.288 7.78868 90.629 11.9382L91.5806 11.6307ZM1 41.0001H2C2 41.0908 1.98422 41.1333 2.00474 41.0378C2.01802 40.9759 2.04021 40.8843 2.07299 40.7594C2.13813 40.5114 2.23597 40.1667 2.36373 39.7344C2.6187 38.8718 2.98448 37.6884 3.42549 36.29C4.30704 33.4946 5.48324 29.8584 6.6604 26.2506C7.83735 22.6434 9.0144 19.0671 9.89727 16.3925C10.3387 15.0552 10.7065 13.9435 10.964 13.166C11.0927 12.7773 11.1939 12.4722 11.2628 12.2643C11.2973 12.1604 11.3237 12.0807 11.3415 12.0271C11.3504 12.0002 11.3572 11.9799 11.3617 11.9663C11.364 11.9595 11.3657 11.9544 11.3668 11.9509C11.3674 11.9492 11.3678 11.9479 11.3681 11.9471C11.3682 11.9467 11.3683 11.9463 11.3684 11.9461C11.3685 11.9459 11.3685 11.9458 10.4195 11.6307C9.4704 11.3156 9.47036 11.3157 9.47029 11.3159C9.47022 11.3161 9.47011 11.3165 9.46996 11.3169C9.46967 11.3178 9.46924 11.3191 9.46867 11.3208C9.46752 11.3242 9.46581 11.3294 9.46354 11.3362C9.45901 11.3499 9.45224 11.3703 9.44332 11.3972C9.42548 11.4509 9.39902 11.5307 9.3645 11.6348C9.29547 11.8429 9.19425 12.1483 9.06542 12.5372C8.80777 13.3152 8.43972 14.4276 7.99806 15.7656C7.11478 18.4415 5.93696 22.02 4.75905 25.6302C3.58135 29.2397 2.40269 32.8834 1.51809 35.6885C1.07602 37.0903 0.705915 38.2873 0.445753 39.1675C0.315955 39.6067 0.211418 39.9741 0.138579 40.2514C0.102369 40.3893 0.0716667 40.5138 0.049305 40.6179C0.0341755 40.6884 0 40.8468 0 41.0001H1ZM10.4195 11.6307L11.371 11.9382C12.712 7.78868 13.9434 5.36291 15.4481 3.94214C16.8924 2.57841 18.7108 2.03236 21.5705 2L21.5592 1.00006L21.5479 0.000125051C18.4399 0.0352995 16.0352 0.637036 14.075 2.48796C12.1751 4.28186 10.8206 7.13764 9.46791 11.3232L10.4195 11.6307ZM80.4408 1.00006V6.10352e-05H21.5592V1.00006V2.00006H80.4408V1.00006ZM14.1579 4.78384L13.7962 5.71616L89.9449 35.2542L90.3065 34.3218L90.6682 33.3895L14.5195 3.85153L14.1579 4.78384Z" fill="black"/>
</svg>
