<svg width="156" height="90" viewBox="0 0 156 90" fill="none" xmlns="http://www.w3.org/2000/svg">
<path d="M0.762024 57.1933L0.837099 57.1719L0.950096 56.999L1.36359 56.092L1.43866 56.1007L1.55166 56.2607L2.01173 57.2378L2.07795 57.205L2.19076 57.0119L2.60425 56.0487L2.67932 56.0564L2.79232 56.2218L3.01793 56.8684L3.16827 57.2137L3.26395 57.284L3.35635 57.2183L3.5065 56.8731L3.80737 56.0574L3.92018 55.9967L3.99525 56.0674L4.14579 56.429L4.44667 57.2682L4.55947 57.331L4.63455 57.2593L4.78489 56.8896L5.08577 56.0168L5.18298 55.9395L5.27365 56.0075L5.38645 56.2607L5.7626 57.3477L5.87521 57.3762L5.98801 57.1962L6.17609 56.5892L6.36416 56.0166L6.49082 55.8808L6.55204 55.9134L6.66484 56.1313L6.89045 56.9129L7.0408 57.3414L7.15399 57.4525L7.22887 57.403L7.34167 57.1571L7.7927 55.8246L7.86797 55.8342L7.98077 56.0327L8.16885 56.6951L8.39426 57.4205L8.49918 57.5206L8.58234 57.4569L8.69514 57.1854L9.14636 55.7562L9.22144 55.7595L9.33424 55.9578L9.48478 56.4922L9.74792 57.4529L9.87112 57.5959L9.9358 57.5555L10.0486 57.3042L10.2367 56.5582L10.4246 55.86L10.5374 55.6738L10.6124 55.6852L10.7254 55.9035L10.8758 56.4743L11.1389 57.5081L11.2517 57.676L11.3268 57.6483L11.4398 57.4034L11.6277 56.6276L11.8533 55.7443L11.9823 55.5768L12.0414 55.6124L12.1542 55.8693L12.3421 56.6716L12.5677 57.5892L12.6805 57.7683L12.7555 57.7419L12.8685 57.4889L13.0564 56.672L13.282 55.7021L13.3948 55.4903L13.4699 55.4969L13.5829 55.7277L13.7331 56.3547L14.0339 57.6957L14.1639 57.8771L14.222 57.8399L14.3348 57.5665L14.5227 56.6965L14.7483 55.6442L14.8611 55.3927L14.9362 55.3773L15.0115 55.488L15.1243 55.865L15.6132 57.9674L15.6883 57.9847L15.7634 57.873L15.8764 57.4891L16.1395 56.0851L16.2898 55.4478L16.4026 55.2494L16.4777 55.2802L16.5907 55.5652L16.7409 56.2877L17.0417 57.8526L17.1546 58.105L17.2296 58.1095L17.3426 57.8672L17.493 57.1683L17.8314 55.3567L17.9442 55.1185L18.0193 55.1287L18.1321 55.3963L18.2826 56.1319L18.6208 58.0066L18.7336 58.2568L18.8089 58.2512L18.9217 57.9839L19.072 57.2355L19.448 55.1397L19.5712 54.949L19.6361 55.0029L19.7489 55.3403L19.8992 56.1645L20.2376 58.1609L20.3504 58.4228L20.4255 58.4176L20.5008 58.266L20.6136 57.7935L20.8392 56.3262L21.0648 55.0499L21.1776 54.7861L21.2527 54.7944L21.3278 54.9517L21.4408 55.4389L21.6664 56.9545L21.892 58.3009L22.0048 58.6017L22.0799 58.6157L22.1549 58.4765L22.2679 58.0055L22.4558 56.745L22.7192 55.0076L22.8318 54.6328L22.8999 54.5683L22.9823 54.6627L23.0951 55.0805L23.2453 56.0379L23.5839 58.3987L23.6967 58.7805L23.764 58.8454L23.8468 58.748L23.9598 58.3192L24.1102 57.335L24.4861 54.6821L24.5989 54.3638L24.674 54.3509L24.7493 54.5011L24.8621 55.0076L25.0501 56.3832L25.3508 58.6065L25.4636 59.018L25.5356 59.0942L25.6142 59.0029L25.7268 58.5678L25.8773 57.5422L26.2908 54.4166L26.4036 54.0941L26.4787 54.0873L26.5539 54.2504L26.6667 54.7886L26.8548 56.2519L27.1555 58.7085L27.2683 59.2261L27.3434 59.3713L27.4188 59.3436L27.4939 59.1435L27.6067 58.5497L27.7948 57.0044L28.0955 54.4617L28.2083 53.9256L28.2834 53.7721L28.3586 53.7948L28.4339 53.9934L28.5467 54.5932L28.7346 56.176L29.073 59.1027L29.1858 59.5968L29.272 59.7154L29.3361 59.6494L29.4114 59.4077L29.5242 58.7441L29.7123 57.0689L30.0505 54.0392L30.1633 53.5268L30.2523 53.3987L30.3139 53.4608L30.3889 53.7013L30.5017 54.3715L30.6898 56.0872L31.0282 59.3012L31.1784 60.0148L31.2529 60.1065L31.3289 60.0102L31.4417 59.5265L31.5921 58.3465L32.1561 53.2135L32.2754 52.9742L32.344 53.0535L32.4192 53.3198L32.532 54.0402L32.7201 55.8733L33.0961 59.7237L33.2464 60.4704L33.3219 60.5682L33.3969 60.4716L33.5095 59.9736L33.6599 58.7436L34.2614 52.7712L34.3743 52.477L34.4495 52.5257L34.5246 52.7702L34.6376 53.4775L34.8255 55.3642L35.2767 60.3206L35.3895 60.9331L35.4646 61.1057L35.5398 61.0785L35.6149 60.8519L35.7279 60.161L35.8781 58.6987L36.4421 52.4252L36.5549 51.9426L36.6202 51.8664L36.7054 51.9973L36.8182 52.5602L36.9684 53.9102L37.2317 57.243L37.4949 60.3736L37.6454 61.4563L37.758 61.7752L37.78 61.7839L37.8708 61.6329L37.9836 61.04L38.1342 59.6413L38.3973 56.1841L38.698 52.4828L38.8485 51.4237L38.9744 51.1323L39.0364 51.2034L39.1115 51.4778L39.2245 52.2538L39.3746 53.8617L40.0517 62.1516L40.1643 62.5633L40.2395 62.5778L40.3146 62.3814L40.4276 61.708L40.5778 60.1903L40.8411 56.4631L41.1795 51.8652L41.3299 50.6546L41.4427 50.2551L41.5177 50.2516L41.593 50.4603L41.7058 51.156L41.8563 52.7125L42.1195 56.5605L42.4579 61.4856L42.6081 62.9086L42.7211 63.4853L42.8025 63.6105L42.8714 63.5203L42.9465 63.2192L43.0595 62.3906L43.2096 60.6755L43.473 56.6083L43.8114 51.4614L43.9993 49.6678L44.1121 49.1629L44.1752 49.0872L44.2626 49.2316L44.3752 49.8378L44.5257 51.3162L44.7514 54.6159L45.2776 62.9298L45.428 64.3008L45.5408 64.8176L45.6068 64.9002L45.6911 64.7646L45.8039 64.1693L45.9545 62.697L46.1424 59.9848L46.8192 49.1192L46.9695 47.9629L47.0823 47.6272L47.105 47.6174L47.1951 47.7705L47.3079 48.3867L47.4583 49.8867L47.6464 52.6489L48.4358 65.4881L48.5861 66.4228L48.6614 66.5826L48.6807 66.5895L48.7742 66.4258L48.887 65.8004L49.0374 64.2908L49.2254 61.5006L49.6014 54.3519L49.9021 49.0964L50.0901 46.8474L50.2405 45.8638L50.3156 45.6741L50.391 45.6922L50.4661 45.9181L50.5789 46.6361L50.7292 48.2509L50.9173 51.152L51.2557 57.7991L51.6317 64.842L51.8196 67.2972L51.9701 68.4852L52.0829 68.8669L52.158 68.8688L52.2331 68.6686L52.3461 67.9961L52.4964 66.448L52.6845 63.613L52.9852 57.6914L53.5115 47.2673L53.7371 44.3474L53.8876 43.2498L54.0004 42.9225L54.0755 42.9479L54.1505 43.1674L54.2635 43.8543L54.4137 45.399L54.602 48.2143L54.9026 54.1701L55.5417 67.3615L55.7674 70.4279L55.9177 71.6755L56.0305 72.1469L56.1031 72.2324L56.181 72.1336L56.2938 71.6436L56.444 70.376L56.6321 67.8939L56.8954 63.079L57.4217 51.327L57.7601 44.5669L57.9857 41.2649L58.1736 39.5082L58.2864 38.9375L58.4 38.7447L58.4745 38.8275L58.5873 39.2664L58.7374 40.4194L58.9255 42.7058L59.1511 46.5063L59.4895 53.704L60.2414 70.2298L60.5048 74.3166L60.6927 76.2977L60.843 77.2508L60.9558 77.5811L61.0309 77.6157L61.1063 77.5021L61.2191 77.0573L61.3693 75.9678L61.5574 73.8589L61.783 70.3646L62.0839 64.4365L62.723 49.7463L63.1742 40.3774L63.4749 35.6546L63.7005 33.1845L63.8885 31.9074L64.0387 31.4181L64.1517 31.364L64.2268 31.4757L64.3396 31.8618L64.4901 32.7728L64.678 34.5145L64.9036 37.4071L65.2045 42.4078L65.618 50.79L66.8211 76.2312L67.1595 81.5978L67.4602 85.2198L67.6858 87.1583L67.8739 88.2468L68.0242 88.7715L68.1746 88.992L68.2496 88.9901L68.3626 88.8503L68.513 88.4147L68.701 87.488L68.9267 85.8535L69.1898 83.2991L69.5282 79.1452L69.9417 73.0469L70.5808 62.308L71.859 40.5946L72.4608 31.8009L72.9871 25.2261L73.476 20.0877L73.927 16.125L74.3783 12.8292L74.8295 10.0965L75.2805 7.81272L75.807 5.56288C75.807 5.56288 76.8958 0.905502 77.762 1.00178C78.6283 1.09805 79.9051 6.32541 79.9051 6.32541L80.3939 8.53134L80.8451 10.9518L81.2586 13.596L81.6723 16.7366L82.0858 20.4508L82.537 25.2261L83.0257 31.2955L83.552 38.8499L84.1911 49.2183L85.9207 78.1096L86.2967 82.8826L86.5974 85.8535L86.8607 87.7059L87.0486 88.5497L87.199 88.915L87.3137 89.0003L87.387 88.9651L87.4998 88.7715L87.6502 88.2468L87.8382 87.1583L88.0261 85.5903L88.2517 83.0905L88.5526 78.7726L88.8908 72.7436L89.3798 62.4878L90.3196 42.408L90.658 36.869L90.9211 33.7406L91.1092 32.2617L91.2595 31.5756L91.3723 31.3638L91.4474 31.3704L91.5604 31.6032L91.6732 32.1042L91.8234 33.1845L92.0115 35.1749L92.2371 38.4316L92.5379 44.0175L92.9892 54.1022L93.6283 68.2857L93.9289 73.345L94.1546 75.9676L94.3049 77.0573L94.4177 77.5021L94.493 77.6157L94.568 77.5811L94.6433 77.3981L94.7561 76.8467L94.9065 75.6072L95.0945 73.2947L95.3201 69.5379L95.6586 62.4337L96.448 45.1274L96.7113 41.227L96.8992 39.495L97.012 38.9323L97.1241 38.7447L97.2001 38.831L97.3129 39.2764L97.463 40.4454L97.6511 42.7669L97.8767 46.6252L98.2527 54.7208L98.7792 65.9937L99.0048 69.4954L99.1927 71.3909L99.3055 72.0154L99.421 72.2324L99.4935 72.1469L99.5686 71.8779L99.6814 71.1377L99.8318 69.5545L100.02 66.7297L100.321 60.7926L100.96 47.5822L101.185 44.5405L101.336 43.3494L101.449 42.9479L101.524 42.9227L101.599 43.0923L101.712 43.7066L101.862 45.1627L102.05 47.8812L102.351 53.6841L102.915 64.8526L103.103 67.3108L103.253 68.4931L103.366 68.8688L103.441 68.8669L103.516 68.6624L103.629 67.985L103.78 66.4337L103.968 63.6099L104.306 57.0258L104.682 49.8907L104.908 46.9723L105.058 45.9181L105.177 45.6564L105.246 45.7431L105.321 46.0355L105.434 46.8474L105.584 48.5663L105.81 52.2168L106.487 64.2908L106.637 65.8004L106.75 66.4256L106.843 66.5893L106.9 66.529L106.975 66.2645L107.088 65.4881L107.239 63.809L107.464 60.2322L108.066 49.8865L108.216 48.3867L108.329 47.7705L108.419 47.6174L108.479 47.6863L108.554 47.9629L108.667 48.7587L108.818 50.4555L109.043 54.0047L109.57 62.697L109.72 64.1693L109.833 64.7646L109.917 64.9002L109.983 64.8176L110.058 64.5245L110.171 63.7062L110.322 61.9924L110.585 57.8397L110.998 51.3162L111.149 49.8378L111.261 49.2316L111.349 49.0872L111.412 49.1629L111.487 49.448L111.6 50.2531L111.75 51.9407L112.014 55.9836L112.389 61.6107L112.54 62.9914L112.653 63.5203L112.722 63.6106L112.803 63.4855L112.916 62.9088L113.066 61.4856L113.292 58.3446L113.743 51.8535L113.893 50.6427L114.006 50.2516L114.081 50.2551L114.156 50.47L114.269 51.1701L114.42 52.7157L114.683 56.4631L114.984 60.6274L115.134 61.981L115.247 62.5058L115.317 62.5974L115.397 62.4774L115.51 61.9152L115.66 60.5336L115.886 57.548L116.262 52.6006L116.412 51.4778L116.525 51.1433L116.55 51.1323L116.638 51.2766L116.751 51.8637L116.901 53.257L117.164 56.7105L117.465 60.4178L117.615 61.4837L117.744 61.7839L117.804 61.7193L117.879 61.4563L117.991 60.7075L118.18 58.7101L118.668 52.8392L118.819 51.9973L118.904 51.8664L118.969 51.9426L119.044 52.2168L119.157 52.9732L119.345 54.9473L119.796 60.161L119.947 60.9897L120.032 61.1191L120.097 61.044L120.172 60.7745L120.285 60.0314L120.473 58.105L120.886 53.4775L121.037 52.6239L121.131 52.4706L121.187 52.5267L121.262 52.7712L121.375 53.4729L121.563 55.3222L121.977 59.7208L122.127 60.4718L122.202 60.568L122.278 60.4704L122.39 59.9742L122.541 58.7615L123.105 53.3198L123.218 52.9905L123.293 53.0075L123.368 53.2135L123.481 53.8489L123.669 55.5646L124.045 59.2825L124.195 60.0104L124.271 60.1065L124.345 60.0148L124.458 59.5406L124.609 58.386L125.135 53.7011L125.248 53.4082L125.323 53.4415L125.398 53.6562L125.511 54.2872L125.699 55.9334L126.037 59.0018L126.15 59.5502L126.225 59.7042L126.301 59.6773L126.376 59.4726L126.489 58.8624L126.677 57.2684L127.015 54.3563L127.128 53.8726L127.212 53.7596L127.278 53.8272L127.391 54.2454L127.541 55.2927L127.993 58.9821L128.105 59.3436L128.18 59.3713L128.256 59.2261L128.369 58.7085L128.556 57.263L128.895 54.5733L129.008 54.148L129.08 54.069L129.158 54.1611L129.271 54.6005L129.421 55.6318L129.835 58.7501L129.948 59.0694L130.023 59.0767L130.098 58.9186L130.211 58.3991L130.399 57.0107L130.7 54.8042L130.812 54.4056L130.882 54.3361L130.963 54.4312L131.075 54.8606L131.226 55.8471L131.602 58.4971L131.715 58.816L131.79 58.8323L131.865 58.6895L131.978 58.2042L132.166 56.9027L132.429 55.0804L132.542 54.6625L132.624 54.5681L132.692 54.6327L132.805 55.0074L132.955 55.9128L133.331 58.3519L133.444 58.6155L133.519 58.6015L133.595 58.4362L133.707 57.9375L133.933 56.4125L134.159 55.083L134.271 54.7942L134.346 54.7859L134.422 54.9267L134.535 55.3883L134.76 56.8488L134.986 58.1386L135.099 58.4174L135.174 58.4228L135.249 58.2822L135.362 57.8283L135.587 56.4102L135.775 55.3401L135.888 55.0026L135.953 54.9486L136.038 55.0418L136.151 55.4277L136.339 56.518L136.602 57.9837L136.715 58.251L136.79 58.2566L136.903 58.0065L137.053 57.2847L137.392 55.3963L137.505 55.1285L137.58 55.1183L137.655 55.2452L137.768 55.6625L138.031 57.1679L138.219 57.9793L138.329 58.1241L138.407 58.0523L138.52 57.7099L138.708 56.7229L138.933 55.565L139.046 55.28L139.121 55.2492L139.196 55.3505L139.309 55.7237L139.535 56.9202L139.723 57.7713L139.836 57.9845L139.911 57.9672L140.024 57.7078L140.174 57.031L140.475 55.5877L140.588 55.3771L140.663 55.3925L140.776 55.644L140.926 56.3016L141.227 57.6849L141.34 57.8722L141.415 57.8439L141.528 57.5805L141.716 56.7356L141.941 55.7275L142.054 55.4965L142.129 55.4903L142.242 55.7019L142.392 56.3033L142.693 57.5992L142.823 57.7727L142.881 57.7367L142.994 57.4771L143.182 56.6715L143.408 55.7582L143.52 55.581L143.595 55.6064L143.708 55.8508L143.896 56.6274L144.122 57.5097L144.253 57.6795L144.31 57.6468L144.423 57.4018L144.611 56.642L144.836 55.8055L144.957 55.6648L145.024 55.7098L145.137 55.9692L145.363 56.8825L145.551 57.4954L145.653 57.5957L145.739 57.5256L145.851 57.2405L146.303 55.7593L146.378 55.756L146.49 55.9444L146.641 56.462L146.904 57.3878L147.025 57.5204L147.092 57.4787L147.205 57.2372L147.468 56.265L147.619 55.8768L147.731 55.8244L147.844 55.9954L147.994 56.4806L148.258 57.3417L148.37 57.4523L148.446 57.402L148.558 57.1579L149.01 55.8854L149.085 55.9037L149.198 56.1038L149.423 56.8571L149.573 57.2772L149.69 57.3907L149.761 57.3475L149.874 57.1205L150.288 55.963L150.363 55.9434L150.438 56.0166L150.589 56.3899L150.889 57.2591L150.986 57.3346L151.077 57.268L151.228 56.9133L151.529 56.0672L151.626 55.9927L151.716 56.0572L151.867 56.403L152.168 57.2181L152.281 57.2805L152.356 57.2135L152.506 56.8682L152.807 56.092L152.92 56.0485L153.033 56.1924L153.22 56.7015L153.409 57.1582L153.512 57.2376L153.596 57.1852L153.747 56.8729L154.048 56.1354L154.16 56.0919L154.273 56.2276L154.461 56.7096L154.649 57.1313L154.762 57.1929" stroke="black" stroke-opacity="1" stroke-width="2" stroke-miterlimit="10" stroke-linejoin="round"/>
</svg>
