<svg xmlns="http://www.w3.org/2000/svg" viewBox="0 0 800 800"><path fill="none" stroke="#000" class="dcg-svg-curve" paint-order="fill stroke markers" d="M0 402.817h0l.39-.111.587-.898 2.148-4.71.39.045.587.831 2.39 5.074.344-.17.586-1.003 2.148-5.002.39.04.587.859 1.172 3.358.781 1.793.497.365.48-.341.78-1.793 1.563-4.236.586-.315.39.367.782 1.878 1.563 4.358.586.326.39-.372.781-1.92 1.563-4.533.505-.401.471.353.586 1.315 1.954 5.645.585.148.586-.935.977-3.152.977-2.974.658-.705.318.169.586 1.132 1.172 4.059.781 2.225.588.577.389-.257.586-1.277 2.343-6.92.391.05.586 1.031.977 3.44 1.171 3.767.545.52.432-.331.586-1.41 2.344-7.422.39.017.586 1.03.782 2.775 1.367 4.989.64.743.336-.21.586-1.305.977-3.874.976-3.626.586-.967.39.059.587 1.134.781 2.964 1.367 5.369.586.872.39-.144.587-1.272.976-4.029 1.172-4.587.67-.87.307.185.586 1.334.976 4.167 1.172 4.765.586.93.39-.137.587-1.314.976-4.242 1.172-5.037.586-1.1.39.034.587 1.199.78 3.256 1.563 6.964.675.942.302-.193.586-1.42.976-4.518 1.172-5.465.586-1.306.39-.08.391.575.586 1.958 2.54 10.918.39.09.39-.58.587-1.994 1.367-7.291.781-3.31.586-1.03.39.16.587 1.48.78 3.752 1.563 8.127.586 1.311.39.023.587-1.258.781-3.63 1.758-9.408.586-1.237.39.053.586 1.39.782 3.82 1.757 9.736.586 1.299.391-.029.586-1.388.781-3.887 1.953-10.884.64-.99.337.28.586 1.752.781 4.28 1.758 10.368.586 1.36.39-.027.391-.787.586-2.454 1.172-7.62 1.172-6.628.586-1.37.39.043.39.817.587 2.53 1.172 7.871 1.172 6.992.586 1.562.39.073.39-.723.587-2.446.976-6.546 1.368-9.023.585-1.946.354-.335.428.49.586 2.17.78 4.972 1.759 12.26.586 1.983.35.337.43-.506.587-2.227.781-5.111 1.953-13.777.586-1.653.39-.067.391.78.586 2.63.977 7.144 1.562 11.546.586 2.137.374.396.408-.474.585-2.26.782-5.326 2.148-16.232.586-1.675.39-.035.391.847.586 2.795.977 7.599 1.562 12.758.586 2.688.39.754.392-.144.39-1.039.586-3.084.977-8.025 1.562-13.205.586-2.784.39-.797.391.118.391 1.031.586 3.115.976 8.22 1.758 15.199.586 2.566.448.616.333-.343.391-1.255.586-3.446.977-8.7 1.757-15.734.586-2.661.462-.665.32.322.39 1.249.586 3.481.977 8.91 1.758 16.691.78 3.706.387.476.395-.5.586-2.512.781-6.128 2.93-26.657.62-1.243.356.412.391 1.383.586 3.741.977 9.52 1.953 19.996.781 3.878.392.508.39-.502.585-2.586.781-6.388 3.125-31.016.586-1.528.391.253.39 1.27.587 3.673.976 9.798 2.344 25.74.586 3.181.39.896.391-.141.39-1.177.587-3.588.78-7.594 2.93-32.58.586-2.506.339-.396.443.68.586 2.923.78 7.011 1.368 17.308 1.367 16.258.782 5.623.585 1.656.114.045.472-.784.586-3.079.782-7.264 1.367-17.954 1.562-19.222.782-5.5.654-1.513.322.369.39 1.425.587 4.03.78 8.35 3.517 43.052.585 2.138.391.075.39-1.02.587-3.497.78-7.882 1.368-19.356 1.758-23.878.781-6.287.586-2.075.39-.018.391 1.084.586 3.613.782 8.083 1.367 19.984 1.758 25.577.78 7.39.587 2.995.423.65.358-.468.39-1.564.587-4.303.78-8.907 1.368-21.122 1.758-26.729.976-9.315.586-2.622.328-.393.454.75.585 3.148.782 7.678 1.172 17.136 2.734 43.176.781 7.12.586 2.684.343.429.438-.704.586-3.092.782-7.646.976-14.085 3.516-56.428.781-6.005.586-1.743.118-.051.468.795.586 3.2.781 7.79.977 14.345 4.101 66.677.781 4.854.391.83.1.036.486-.85.586-3.248.781-7.84.977-14.49 1.953-37.125 1.562-27.293.977-11.68.781-5.108.39-.985.392.094.39 1.173.586 3.729.781 8.386.977 15.066 1.758 34.52 1.953 36.576.976 12.75.782 6.17.586 1.982.39.01.39-1.04.587-3.492.781-8.04.977-14.723 1.562-30.752 2.734-54.135 1.172-15.164.782-5.7.586-1.7.39.132.39 1.14.587 3.567.78 8.022.978 14.621 1.562 30.93 3.32 68.506 1.172 15.925.781 6.479.586 2.448.377.444.405-.513.586-2.545.78-6.583.977-12.89 1.368-25.005 2.734-61.031 1.758-35.107 1.172-17.148.976-9.123.586-2.964.59-1.001.387.43.586 2.279.78 5.988.977 11.874 1.172 19.737 1.758 37.379 3.906 85.823 1.368 21.224.976 10.288.781 4.95.586 1.715.39.18.392-.59.586-2.31.78-5.658.977-10.952 1.172-18.147 1.563-30.786 3.32-76.29 2.344-48.655 1.562-24.527 1.172-12.828.977-6.632.78-2.541.587-.281.39.58.586 2.005.782 4.731.976 9.045 1.172 15.022 1.563 25.97 2.148 43.531 6.25 132.123 1.758 27.87 1.562 18.81 1.172 10.067.977 5.653.781 2.725.781 1.145.39-.01.587-.726.781-2.262.977-4.813 1.172-8.488 1.367-13.266 1.758-21.572 2.148-31.67 3.32-55.77 6.64-112.763 3.126-45.668 2.734-34.145 2.54-26.685 2.343-20.579 2.344-17.116 2.344-14.192 2.343-11.86 2.735-11.684 3.32-12.282L400 98.845l11.133 39.802 2.539 11.456 2.344 12.57 2.148 13.732 2.149 16.31 2.148 19.289 2.344 24.799 2.539 31.52 2.734 39.232 3.32 53.846 8.985 150.04 1.953 24.787 1.562 15.429 1.368 9.62.976 4.382.781 1.897.596.443.381-.183.586-1.005.781-2.725.977-5.653.976-8.143 1.172-12.982 1.563-22.424 1.757-31.31 2.54-53.261 4.882-104.28 1.758-28.765 1.367-16.247.977-7.68.781-3.563.586-1.1.39.034.587 1.209.586 2.602.78 5.61.977 10.337 1.172 16.913 1.563 29.009 2.344 52.372 3.32 73.659 1.562 26.274 1.172 13.62.781 5.659.586 2.31.391.59.39-.18.391-.95.586-2.864.781-6.437.977-12.009 1.172-19.51 1.758-36.894 4.101-89.876 1.368-20.256.976-8.995.586-2.922.582-.974.395.448.586 2.313.78 6.071.977 12.056 1.172 20.037 1.953 42.043 2.735 58.543 1.172 18.185.976 9.844.586 3.243.6 1.127.377-.444.39-1.397.586-3.844.781-8.222.977-14.67 1.563-30.833 3.32-68.605 1.172-15.796.78-6.186.587-2.085.39-.131.391.881.586 3.19.781 7.562.977 14.118 1.562 30.136 2.93 58.001.977 12.766.78 6.14.587 1.951.39-.01.391-1.062.586-3.518.781-8.056.977-14.665 1.758-34.193 1.953-37.054 1.172-15.156.78-5.475.62-1.359.357.45.391 1.519.586 4.216.781 8.927 1.172 18.958 3.516 62.703.781 7.84.586 3.247.486.85.295-.313.39-1.374.587-4.032.781-8.72 1.172-18.575 3.125-53.728.781-7.789.586-3.2.468-.795.313.358.39 1.436.587 4.133.781 8.812 1.172 18.432 2.734 45.141.782 7.646.586 3.092.438.704.343-.429.39-1.522.586-4.25.782-8.9 1.367-21.566 2.148-33.878.782-7.678.585-3.148.454-.75.328.393.39 1.481.586 4.181.782 8.764 1.367 20.996 1.953 29.223.781 7.17.586 2.747.358.469.423-.65.586-2.995.781-7.391 1.172-16.312 2.344-33.71.781-6.288.586-2.031.39.018.391 1.116.586 3.636.782 8.027 1.367 19.461 1.562 21.626.782 7.03.586 2.725.364.476.417-.623.586-2.92.781-7.175 1.172-15.505L600 378.966l.781-5.831.586-1.737.127-.057.46.749.585 3.049.781 7.236 1.367 17.935 1.563 19.253.781 5.535.668 1.559.309-.335.39-1.366.586-3.889.977-10.373 2.539-30.489.781-4.372.443-.68.338.396.391 1.424.586 3.928.977 10.252 2.343 27.076.782 4.304.443.672.338-.39.39-1.4.586-3.859.977-10.004 2.148-24.032.782-4.433.487-.796.294.291.39 1.27.587 3.644.976 9.604 2.149 22.843.78 3.9.39.5.392-.507.586-2.577.781-6.298 2.93-28.26.586-1.71.39.088.391 1.07.586 3.3.977 8.91 1.953 19.308.78 3.78.396.499.386-.476.586-2.463.781-5.996 2.735-24.33.586-1.521.39.173.39 1.115.587 3.277.976 8.549 1.758 15.935.586 2.848.39.8.391-.14.391-1.063.586-3.169.977-8.278 1.757-15.123.586-2.512.44-.587.342.351.586 2.172.78 5.439 2.345 19.16.585 1.877.391.144.39-.754.587-2.688.976-7.507 1.758-13.968.586-2.209.375-.41.406.478.586 2.282.781 5.356 2.149 16.194.586 1.658.39.038.391-.821.586-2.698.976-7.21L675 390.41l.586-2.07.36-.361.421.494.586 2.23.781 5.123 1.953 13.762.586 1.656.391.085.39-.742.587-2.52.976-6.759 1.367-9.464.586-2.17.428-.49.354.335.586 1.946.78 4.702 1.954 12.667.586 1.369.39-.073.391-.858.586-2.59 1.172-7.92 1.172-6.904.586-1.5.39-.043.39.731.587 2.397 1.172 7.585 1.172 6.698.586 1.448.39.028.39-.73.587-2.357 1.172-7.365.976-5.557.586-1.753.337-.28.444.484.586 2.004.977 5.662 1.367 7.612.586 1.388.39.029.587-1.299.78-3.748 1.759-9.807.586-1.391.39-.053.39.659.587 2.167 1.367 7.818.976 4.214.574.752.403-.373.586-1.778.977-5.126 1.171-6.013.586-1.48.391-.16.39.526.587 1.938 1.171 6.214.977 4.42.586 1.107.39-.09.587-1.347.78-3.515 1.563-7.495.586-1.094.39.08.587 1.306.781 3.415 1.563 7.184.585.973.391-.147.586-1.368.977-4.388 1.171-5.235.586-1.2.391-.032.586 1.099.781 3.123 1.563 6.73.672.901.304-.187.586-1.348.977-4.184 1.172-4.743.586-.92.39.132.586 1.269.977 4.033 1.172 4.582.68.882.296-.17.586-1.272.977-3.946 1.172-4.344.625-.731.351.234.586 1.347 1.172 4.743.976 3.183.533.521.444-.364.586-1.481 2.344-7.692.39-.017.586.978.782 2.688 1.367 4.808.627.689.35-.217.585-1.254 1.367-5.049.782-2.016.586-.272.586.888.78 2.52 1.368 4.472.584.574.393-.261.585-1.268 2.344-6.608.39.095.587 1.039 1.172 3.912.78 2.182.606.589.371-.224.586-1.179 2.149-6.011.39-.102.391.38.781 1.939 1.563 4.514.503.392.473-.346.782-1.842 1.562-4.394.506-.387.47.335.782 1.796 1.562 4.233.586.324.391-.348.781-1.793 1.563-4.031.586-.226.586.747.976 2.644.977 2.372.54.412.436-.272.782-1.622 1.562-3.83.586-.226.586.705.976 2.503.977 2.19.586.32" stroke-linecap="round" stroke-linejoin="round" stroke-miterlimit="10" stroke-width="2.5" stroke-opacity=".9"/></svg>