<svg xmlns="http://www.w3.org/2000/svg" viewBox="0 0 800 800"><path fill="none" stroke="#388c46" class="dcg-svg-curve" paint-order="fill stroke markers" d="M0 574.231h0l1.367-122.078L3.711 236.15l.976-57.115.586-18.864.391-5.513.177-.596.214.863.39 6.006.586 19.348.782 43.182 1.171 92.788 2.93 251.01.977 47.71.586 13.622.364 2.37.221-.871.391-5.747.586-18.32.781-40.724 1.172-87.301 2.93-235.534.976-44.585.586-12.643.357-2.131.23.876.39 5.497.586 17.346.781 38.404L25 327.366l2.93 221.01.976 41.663.586 11.733.35 1.915.236-.88.39-5.256.587-16.422.78-36.216 1.173-77.28 2.93-207.379.976-38.931.586-10.887.341-1.719.245.882.39 5.024.587 15.546.78 34.151 1.173 72.708 2.93 194.587.976 36.378.586 10.1.333 1.54.253-.881.39-4.8.586-14.716.782-32.203 1.171-68.406 2.93-182.583.977-33.99.586-9.368.325-1.38.26.88.391 4.585.586 13.93.781 30.365 1.172 64.357 2.93 171.317.977 31.758.585 8.688.318 1.235.268-.877.391-4.379.586-13.183.781-28.632 1.172-60.547 2.93-160.745.781-25.297.586-10.606.39-2.777.115-.151.276.871.39 4.181.587 12.476.781 26.998 1.172 56.961 2.93 150.824.78 23.644.587 9.866.39 2.542.107.123.284-.865.39-3.99.587-11.807.78-25.455 1.173-53.588 2.93-141.513.78-22.1.587-9.175.39-2.326.1-.099.29.858.391 3.808.586 11.172.782 24 1.171 50.413 2.93 132.777.781 20.653.586 8.533.482 2.206.104-.103.39-2.21.587-8.56.781-20.331 1.172-45.212L100 313.53l.781-19.302.586-7.934.474-2.005.112.112.39 2.129.587 8.115.78 19.182 1.173 42.546 3.125 125.054.781 18.039.586 7.377.466 1.821.12-.12.39-2.05.587-7.692.78-18.097 1.173-40.038 3.125-117.344.78-16.858.587-6.858.458-1.654.128.128.39 1.972.586 7.292.782 17.073 1.171 37.677 3.125 110.109.782 15.753.586 6.375.45 1.5.136-.135.39-1.897.586-6.91.781-16.106 1.172-35.455 3.125-103.319.781-14.72.586-5.926.443-1.36.143.142.391 1.823.586 6.55.781 15.193 1.172 33.362 3.125 96.947.781 13.755.586 5.506.435 1.234.151-.149.39-1.75.587-6.207.781-14.332 1.172-31.394 3.125-90.966.781-12.853.586-5.117.427-1.117.159.154.39 1.682.587 5.88.78 13.52 1.173 29.54 3.125 85.354.78 12.009.587 4.754.42 1.011.166-.159.39-1.613.586-5.572.782-12.752 1.172-27.797 3.125-80.087.78-11.22.587-4.417.411-.914.37.735.39 2.35.587 6.408.78 13.305 1.173 27.356 2.734 66.736.977 13.91.585 4.103.404.827.378-.72.39-2.238.586-6.059.782-12.54 1.171-25.733 2.735-62.617.976-13 .586-3.811.396-.746.386.704.39 2.129.586 5.729.781 11.82 1.368 28.693 2.343 51.008.977 13.574.586 4.524.39 1.354.391-.009.39-1.362.587-4.485.78-10.092 1.173-21.788 3.125-62.07.781-8.547.586-3.285.38-.608.401.673.39 1.927.587 5.12.781 10.502 1.367 25.377 2.344 44.903.977 11.873.585 3.922.391 1.146.39-.056.391-1.248.586-4.023.781-8.976 1.172-19.289 2.93-52.18.977-9.918.586-2.831.364-.493.417.64.586 3.015.781 7.55.977 13.998 3.906 61.811.781 5.027.39.968.391-.091.39-1.143.587-3.606.781-7.983L225 415.099l2.93-45.943.976-8.661.586-2.44.35-.397.431.607.586 2.716.782 6.725.976 12.403 3.711 52.783.781 5.234.586 1.572.39-.118.392-1.044.585-3.232.782-7.099 1.172-15.114 2.93-40.451.976-7.562.586-2.1.333-.32.448.575.586 2.445.781 5.989.977 10.99 3.71 46.472.782 4.555.586 1.338.39-.137.391-.953.586-2.896.781-6.312 1.172-13.378 2.93-35.614.976-6.602.586-1.806.318-.256.464.542.586 2.2.78 5.333 1.173 11.983 3.32 37.273.781 4.624.586 1.675.31.229.471-.527.586-2.087.782-5.032 1.172-11.277 3.32-34.972.781-4.318.586-1.553.302-.205.48.512.585 1.979.781 4.748 1.172 10.612 3.32 32.814.782 4.032.586 1.44.294.182.487-.496.586-1.877.781-4.48 1.172-9.987 3.32-30.788.782-3.765.586-1.334.39-.14.39.459.587 1.78.781 4.226 1.172 9.398 3.32 28.887.782 3.516.586 1.236.39.12.39-.442.587-1.687.78-3.987 1.173-8.845 3.125-25.996.976-4.39.586-1.144.39-.103.392.426.586 1.6.78 3.761 1.173 8.323 3.125 24.394.976 4.1.586 1.06.39.087.391-.41.586-1.516.782-3.549 1.171-7.832 3.125-22.89.977-3.83.586-.981.39-.072.391.394.586 1.436.781 3.349 1.172 7.37 3.125 21.478.977 3.577.586.909.39.059.586-.73.782-2.412.976-4.962 1.758-11.951 1.758-11.004.976-3.788.782-1.323.39-.047.586.697.781 2.28.977 4.674 1.758 11.231 1.758 10.318.976 3.541.781 1.228.391.036.586-.666.781-2.155.977-4.402 1.758-10.555 1.757-9.675.977-3.31.781-1.138.586.096.586.9.781 2.351 1.172 5.476 3.516 18.415.781 2.028.802.719.565-.356.781-1.618.977-3.607 1.563-8.053 1.953-9.893.976-3.226.782-1.29.585-.138.586.58.782 1.819.976 3.678 1.953 9.761 1.563 6.975.976 2.702.782.908.586-.107.585-.771.782-1.978 1.172-4.567 3.515-15.21.781-1.65.78-.561.588.32.78 1.37.978 3.018 1.562 6.69 1.953 8.167.977 2.639.78 1.038.587.09.586-.504.781-1.535.977-3.072 1.953-8.098 1.562-5.746.977-2.206.781-.722.586.11.781.997.977 2.448 1.367 4.962 2.344 8.758.976 2.308.782.897.585.065.586-.458.977-1.834 1.172-3.584 3.515-11.787.977-1.433.552-.22.62.276.781 1.098.977 2.378 1.758 5.922 1.757 5.624.977 2.019.976.842.586-.11.782-.849.976-2.051 1.563-4.777 2.148-6.582 1.172-2.138.781-.531.586.109.781.804.977 1.934 1.563 4.491 2.148 6.175 1.172 1.999.781.491.586-.108.781-.762 1.172-2.282 1.758-4.917 1.758-4.64 1.172-1.867.78-.455.782.226.781.88 1.172 2.33 4.297 10.058.977.624.781-.22.781-.83 1.172-2.196 4.297-9.436.977-.579.78.212.977 1.064 1.368 2.652 3.515 7.541.977.876.781.078.781-.48.977-1.302 1.562-3.193 2.54-5.239 1.171-1.251.685-.205.878.332.976 1.093 1.563 2.884 2.734 5.329 1.172 1.169.781.183.782-.313.976-1.03 1.563-2.714 2.734-5 1.172-1.09.781-.169.781.299.977.973 1.562 2.553 2.735 4.69 1.172 1.019.976.122.977-.552 1.172-1.419 4.882-6.954.977-.11.977.523 1.172 1.337 4.882 6.523.977.098.976-.495 1.172-1.26 4.883-6.118.977-.088.976.47 1.367 1.435 4.297 5.311 1.021.291.932-.24 1.172-.925 1.953-2.496 2.344-2.76 1.172-.613.977.031 1.172.669 1.562 1.69 3.32 3.737 1.172.463.977-.126 1.172-.73 1.757-1.9 2.735-2.906 1.172-.531.976.034 1.172.597 1.563 1.497 3.125 3.166 1.171.496 1.172-.092 1.172-.65 1.758-1.682 2.734-2.555 1.368-.485 1.172.182 1.367.845 5.273 4.108 1.172-.088 1.367-.716 2.344-2.091 2.148-1.605 1.357-.329 1.182.248 1.563.975 4.297 3.184 1.367.127 1.367-.483 1.953-1.428 2.735-1.975 1.367-.365 1.367.22 1.563.864 4.296 2.802 1.368.105 1.367-.431 1.953-1.263 2.734-1.737 1.367-.316 1.368.199 1.758.891 3.906 2.29 1.367.156 1.367-.322 1.953-1.071 3.125-1.72 1.563-.203 1.562.382 2.149 1.17 2.734 1.374 1.563.188 1.562-.361 2.344-1.214 2.539-1.175 1.562-.173 1.563.34 2.344 1.142 2.539 1.101 1.562.16 1.758-.392L675 399.46l2.148-.668 1.563.026 1.953.614 4.492 1.705 1.758-.06 1.953-.625 4.102-1.493 1.758.001 1.953.545 4.492 1.5 1.758-.058 2.148-.627 3.906-1.24 1.953.033 2.344.662 3.711 1.092 1.953-.034 2.344-.623 3.711-1.023 1.953.033 2.54.65 3.515.896 2.148-.061 2.735-.704 3.125-.72 2.148.06 2.93.718 3.125.634 2.148-.102 3.32-.8 2.735-.45 2.344.171 7.03 1.074 2.93-.545 3.712-.623 2.539.186 6.64.926 2.93-.456 3.906-.588 2.54.167 6.835.801 1.172-.128" stroke-linecap="round" stroke-linejoin="round" stroke-miterlimit="10" stroke-width="2.5" stroke-opacity=".9"/></svg>