<svg width="102" height="42" viewBox="0 0 102 42" fill="none" xmlns="http://www.w3.org/2000/svg">
<path d="M101 41.0001C101 40.0001 91.5806 11.6307 91.5806 11.6307C88.8869 3.29563 86.4085 1.0676 80.4408 1.00006H21.5592C15.5915 1.0676 13.1131 3.29563 10.4195 11.6307C10.4195 11.6307 1 40.0001 1 41.0001" stroke="black" stroke-width="2"/>
<path d="M98.6974 37.5766L91.4622 28.5774L87.2863 39.3429L98.6974 37.5766ZM14.1579 4.78381L13.7963 5.71613L14.2649 5.89791L14.6265 4.96559L14.9882 4.03328L14.5195 3.8515L14.1579 4.78381ZM15.7512 5.40186L15.3896 6.33418L16.3268 6.69773L16.6885 5.76542L17.0501 4.8331L16.1129 4.46954L15.7512 5.40186ZM17.8132 6.20168L17.4515 7.134L18.3888 7.49756L18.7504 6.56524L19.112 5.63292L18.1748 5.26937L17.8132 6.20168ZM19.8751 7.00151L19.5134 7.93382L20.4507 8.29738L20.8123 7.36506L21.174 6.43275L20.2367 6.06919L19.8751 7.00151ZM21.937 7.80133L21.5754 8.73365L22.5126 9.0972L22.8743 8.16489L23.2359 7.23257L22.2987 6.86902L21.937 7.80133ZM23.999 8.60116L23.6373 9.53347L24.5746 9.89703L24.9362 8.96471L25.2979 8.0324L24.3606 7.66884L23.999 8.60116ZM26.0609 9.40098L25.6993 10.3333L26.6365 10.6969L26.9981 9.76454L27.3598 8.83222L26.4225 8.46866L26.0609 9.40098ZM28.1228 10.2008L27.7612 11.1331L28.6984 11.4967L29.0601 10.5644L29.4217 9.63204L28.4845 9.26849L28.1228 10.2008ZM30.1848 11.0006L29.8231 11.9329L30.7604 12.2965L31.122 11.3642L31.4837 10.4319L30.5464 10.0683L30.1848 11.0006ZM32.2467 11.8005L31.8851 12.7328L32.8223 13.0963L33.184 12.164L33.5456 11.2317L32.6084 10.8681L32.2467 11.8005ZM34.3087 12.6003L33.947 13.5326L34.8843 13.8961L35.2459 12.9638L35.6075 12.0315L34.6703 11.668L34.3087 12.6003ZM36.3706 13.4001L36.009 14.3324L36.9462 14.696L37.3078 13.7637L37.6695 12.8313L36.7322 12.4678L36.3706 13.4001ZM38.4325 14.1999L38.0709 15.1322L39.0081 15.4958L39.3698 14.5635L39.7314 13.6312L38.7942 13.2676L38.4325 14.1999ZM40.4945 14.9998L40.1328 15.9321L41.0701 16.2956L41.4317 15.3633L41.7934 14.431L40.8561 14.0674L40.4945 14.9998ZM42.5564 15.7996L42.1948 16.7319L43.132 17.0954L43.4937 16.1631L43.8553 15.2308L42.9181 14.8673L42.5564 15.7996ZM44.6184 16.5994L44.2567 17.5317L45.194 17.8953L45.5556 16.963L45.9172 16.0306L44.98 15.6671L44.6184 16.5994ZM46.6803 17.3992L46.3187 18.3315L47.2559 18.6951L47.6175 17.7628L47.9792 16.8305L47.0419 16.4669L46.6803 17.3992ZM48.7422 18.199L48.3806 19.1314L49.3178 19.4949L49.6795 18.5626L50.0411 17.6303L49.1039 17.2667L48.7422 18.199ZM50.8042 18.9989L50.4425 19.9312L51.3798 20.2947L51.7414 19.3624L52.1031 18.4301L51.1658 18.0666L50.8042 18.9989ZM52.8661 19.7987L52.5045 20.731L53.4417 21.0946L53.8034 20.1623L54.165 19.2299L53.2278 18.8664L52.8661 19.7987ZM54.9281 20.5985L54.5664 21.5308L55.5037 21.8944L55.8653 20.9621L56.2269 20.0298L55.2897 19.6662L54.9281 20.5985ZM56.99 21.3983L56.6284 22.3307L57.5656 22.6942L57.9272 21.7619L58.2889 20.8296L57.3516 20.466L56.99 21.3983ZM59.0519 22.1982L58.6903 23.1305L59.6275 23.494L59.9892 22.5617L60.3508 21.6294L59.4136 21.2659L59.0519 22.1982ZM61.1139 22.998L60.7522 23.9303L61.6895 24.2939L62.0511 23.3616L62.4128 22.4292L61.4755 22.0657L61.1139 22.998ZM63.1758 23.7978L62.8142 24.7301L63.7514 25.0937L64.1131 24.1614L64.4747 23.2291L63.5375 22.8655L63.1758 23.7978ZM65.2378 24.5976L64.8761 25.53L65.8134 25.8935L66.175 24.9612L66.5366 24.0289L65.5994 23.6653L65.2378 24.5976ZM67.2997 25.3975L66.938 26.3298L67.8753 26.6933L68.2369 25.761L68.5986 24.8287L67.6613 24.4652L67.2997 25.3975ZM69.3616 26.1973L69 27.1296L69.9372 27.4932L70.2989 26.5609L70.6605 25.6285L69.7233 25.265L69.3616 26.1973ZM71.4236 26.9971L71.0619 27.9294L71.9992 28.293L72.3608 27.3607L72.7225 26.4284L71.7852 26.0648L71.4236 26.9971ZM73.4855 27.7969L73.1239 28.7293L74.0611 29.0928L74.4228 28.1605L74.7844 27.2282L73.8472 26.8646L73.4855 27.7969ZM75.5475 28.5968L75.1858 29.5291L76.1231 29.8926L76.4847 28.9603L76.8463 28.028L75.9091 27.6645L75.5475 28.5968ZM77.6094 29.3966L77.2477 30.3289L78.185 30.6925L78.5466 29.7601L78.9083 28.8278L77.971 28.4643L77.6094 29.3966ZM79.6713 30.1964L79.3097 31.1287L80.2469 31.4923L80.6086 30.56L80.9702 29.6277L80.033 29.2641L79.6713 30.1964ZM81.7333 30.9962L81.3716 31.9286L82.3089 32.2921L82.6705 31.3598L83.0322 30.4275L82.0949 30.0639L81.7333 30.9962ZM83.7952 31.7961L83.4336 32.7284L84.3708 33.0919L84.7325 32.1596L85.0941 31.2273L84.1569 30.8638L83.7952 31.7961ZM85.8572 32.5959L85.4955 33.5282L86.4328 33.8918L86.7944 32.9594L87.156 32.0271L86.2188 31.6636L85.8572 32.5959ZM87.9191 33.3957L87.5574 34.328L88.4947 34.6916L88.8563 33.7593L89.218 32.827L88.2807 32.4634L87.9191 33.3957ZM89.981 34.1955L89.6194 35.1279L90.5566 35.4914L90.9183 34.5591L91.2799 33.6268L90.3427 33.2632L89.981 34.1955ZM92.043 34.9954L91.6813 35.9277L92.6186 36.2912L92.9802 35.3589L93.3419 34.4266L92.4046 34.0631L92.043 34.9954ZM94.1049 35.7952L93.7433 36.7275L94.6805 37.0911L95.0422 36.1587L95.4038 35.2264L94.4666 34.8629L94.1049 35.7952ZM96.1668 36.595L95.8052 37.5273L96.7424 37.8909L97.1041 36.9586L97.4657 36.0263L96.5285 35.6627L96.1668 36.595ZM98.6974 37.5766L91.4622 28.5774L87.2863 39.3429L98.6974 37.5766ZM14.1579 4.78381L13.7963 5.71613L14.2649 5.89791L14.6265 4.96559L14.9882 4.03328L14.5195 3.8515L14.1579 4.78381ZM15.7512 5.40186L15.3896 6.33418L16.3268 6.69773L16.6885 5.76542L17.0501 4.8331L16.1129 4.46954L15.7512 5.40186ZM17.8132 6.20168L17.4515 7.134L18.3888 7.49756L18.7504 6.56524L19.112 5.63292L18.1748 5.26937L17.8132 6.20168ZM19.8751 7.00151L19.5134 7.93382L20.4507 8.29738L20.8123 7.36506L21.174 6.43275L20.2367 6.06919L19.8751 7.00151ZM21.937 7.80133L21.5754 8.73365L22.5126 9.0972L22.8743 8.16489L23.2359 7.23257L22.2987 6.86902L21.937 7.80133ZM23.999 8.60116L23.6373 9.53347L24.5746 9.89703L24.9362 8.96471L25.2979 8.0324L24.3606 7.66884L23.999 8.60116ZM26.0609 9.40098L25.6993 10.3333L26.6365 10.6969L26.9981 9.76454L27.3598 8.83222L26.4225 8.46866L26.0609 9.40098ZM28.1228 10.2008L27.7612 11.1331L28.6984 11.4967L29.0601 10.5644L29.4217 9.63204L28.4845 9.26849L28.1228 10.2008ZM30.1848 11.0006L29.8231 11.9329L30.7604 12.2965L31.122 11.3642L31.4837 10.4319L30.5464 10.0683L30.1848 11.0006ZM32.2467 11.8005L31.8851 12.7328L32.8223 13.0963L33.184 12.164L33.5456 11.2317L32.6084 10.8681L32.2467 11.8005ZM34.3087 12.6003L33.947 13.5326L34.8843 13.8961L35.2459 12.9638L35.6075 12.0315L34.6703 11.668L34.3087 12.6003ZM36.3706 13.4001L36.009 14.3324L36.9462 14.696L37.3078 13.7637L37.6695 12.8313L36.7322 12.4678L36.3706 13.4001ZM38.4325 14.1999L38.0709 15.1322L39.0081 15.4958L39.3698 14.5635L39.7314 13.6312L38.7942 13.2676L38.4325 14.1999ZM40.4945 14.9998L40.1328 15.9321L41.0701 16.2956L41.4317 15.3633L41.7934 14.431L40.8561 14.0674L40.4945 14.9998ZM42.5564 15.7996L42.1948 16.7319L43.132 17.0954L43.4937 16.1631L43.8553 15.2308L42.9181 14.8673L42.5564 15.7996ZM44.6184 16.5994L44.2567 17.5317L45.194 17.8953L45.5556 16.963L45.9172 16.0306L44.98 15.6671L44.6184 16.5994ZM46.6803 17.3992L46.3187 18.3315L47.2559 18.6951L47.6175 17.7628L47.9792 16.8305L47.0419 16.4669L46.6803 17.3992ZM48.7422 18.199L48.3806 19.1314L49.3178 19.4949L49.6795 18.5626L50.0411 17.6303L49.1039 17.2667L48.7422 18.199ZM50.8042 18.9989L50.4425 19.9312L51.3798 20.2947L51.7414 19.3624L52.1031 18.4301L51.1658 18.0666L50.8042 18.9989ZM52.8661 19.7987L52.5045 20.731L53.4417 21.0946L53.8034 20.1623L54.165 19.2299L53.2278 18.8664L52.8661 19.7987ZM54.9281 20.5985L54.5664 21.5308L55.5037 21.8944L55.8653 20.9621L56.2269 20.0298L55.2897 19.6662L54.9281 20.5985ZM56.99 21.3983L56.6284 22.3307L57.5656 22.6942L57.9272 21.7619L58.2889 20.8296L57.3516 20.466L56.99 21.3983ZM59.0519 22.1982L58.6903 23.1305L59.6275 23.494L59.9892 22.5617L60.3508 21.6294L59.4136 21.2659L59.0519 22.1982ZM61.1139 22.998L60.7522 23.9303L61.6895 24.2939L62.0511 23.3616L62.4128 22.4292L61.4755 22.0657L61.1139 22.998ZM63.1758 23.7978L62.8142 24.7301L63.7514 25.0937L64.1131 24.1614L64.4747 23.2291L63.5375 22.8655L63.1758 23.7978ZM65.2378 24.5976L64.8761 25.53L65.8134 25.8935L66.175 24.9612L66.5366 24.0289L65.5994 23.6653L65.2378 24.5976ZM67.2997 25.3975L66.938 26.3298L67.8753 26.6933L68.2369 25.761L68.5986 24.8287L67.6613 24.4652L67.2997 25.3975ZM69.3616 26.1973L69 27.1296L69.9372 27.4932L70.2989 26.5609L70.6605 25.6285L69.7233 25.265L69.3616 26.1973ZM71.4236 26.9971L71.0619 27.9294L71.9992 28.293L72.3608 27.3607L72.7225 26.4284L71.7852 26.0648L71.4236 26.9971ZM73.4855 27.7969L73.1239 28.7293L74.0611 29.0928L74.4228 28.1605L74.7844 27.2282L73.8472 26.8646L73.4855 27.7969ZM75.5475 28.5968L75.1858 29.5291L76.1231 29.8926L76.4847 28.9603L76.8463 28.028L75.9091 27.6645L75.5475 28.5968ZM77.6094 29.3966L77.2477 30.3289L78.185 30.6925L78.5466 29.7601L78.9083 28.8278L77.971 28.4643L77.6094 29.3966ZM79.6713 30.1964L79.3097 31.1287L80.2469 31.4923L80.6086 30.56L80.9702 29.6277L80.033 29.2641L79.6713 30.1964ZM81.7333 30.9962L81.3716 31.9286L82.3089 32.2921L82.6705 31.3598L83.0322 30.4275L82.0949 30.0639L81.7333 30.9962ZM83.7952 31.7961L83.4336 32.7284L84.3708 33.0919L84.7325 32.1596L85.0941 31.2273L84.1569 30.8638L83.7952 31.7961ZM85.8572 32.5959L85.4955 33.5282L86.4328 33.8918L86.7944 32.9594L87.156 32.0271L86.2188 31.6636L85.8572 32.5959ZM87.9191 33.3957L87.5574 34.328L88.4947 34.6916L88.8563 33.7593L89.218 32.827L88.2807 32.4634L87.9191 33.3957ZM89.981 34.1955L89.6194 35.1279L90.5566 35.4914L90.9183 34.5591L91.2799 33.6268L90.3427 33.2632L89.981 34.1955ZM92.043 34.9954L91.6813 35.9277L92.6186 36.2912L92.9802 35.3589L93.3419 34.4266L92.4046 34.0631L92.043 34.9954ZM94.1049 35.7952L93.7433 36.7275L94.6805 37.0911L95.0422 36.1587L95.4038 35.2264L94.4666 34.8629L94.1049 35.7952ZM96.1668 36.595L95.8052 37.5273L96.7424 37.8909L97.1041 36.9586L97.4657 36.0263L96.5285 35.6627L96.1668 36.595Z" fill="black"/>
<path d="M87.8421 6.04509L76.745 4.15136L80.2818 15.1434L87.8421 6.04509ZM1.98682 39.1982L2.29311 40.1502L79.7526 10.2391L79.4463 9.28714L79.14 8.3352L1.68052 38.2463L1.98682 39.1982Z" fill="black"/>
</svg>
