<svg width="102" height="42" viewBox="0 0 102 42" fill="none" xmlns="http://www.w3.org/2000/svg">
<path d="M101 41.0001C101 40.0001 91.5806 11.6307 91.5806 11.6307C88.8869 3.29563 86.4085 1.0676 80.4408 1.00006H21.5592C15.5915 1.0676 13.1131 3.29563 10.4195 11.6307C10.4195 11.6307 1 40.0001 1 41.0001" stroke="black" stroke-width="2"/>
<path d="M98.6974 37.5767L91.4622 28.5775L87.2863 39.3429L98.6974 37.5767ZM14.1579 4.78387L13.7963 5.71619L89.9449 35.2542L90.3065 34.3219L90.6682 33.3895L14.5195 3.85156L14.1579 4.78387Z" fill="black"/>
<path d="M87.8421 6.04509L76.745 4.15136L80.2818 15.1434L87.8421 6.04509ZM1.98682 39.1982L2.29311 40.1502L2.7577 39.9708L2.4514 39.0188L2.1451 38.0669L1.68052 38.2463L1.98682 39.1982ZM3.5664 38.5883L3.8727 39.5402L4.80187 39.1814L4.49557 38.2295L4.18928 37.2775L3.26011 37.6363L3.5664 38.5883ZM5.61058 37.7989L5.91688 38.7509L6.84604 38.3921L6.53975 37.4401L6.23345 36.4882L5.30428 36.847L5.61058 37.7989ZM7.65475 37.0096L7.96105 37.9615L8.89022 37.6027L8.58392 36.6508L8.27762 35.6988L7.34845 36.0576L7.65475 37.0096ZM9.69892 36.2202L10.0052 37.1721L10.9344 36.8133L10.6281 35.8614L10.3218 34.9095L9.39262 35.2683L9.69892 36.2202ZM11.7431 35.4308L12.0494 36.3828L12.9786 36.024L12.6723 35.072L12.366 34.1201L11.4368 34.4789L11.7431 35.4308ZM13.7873 34.6415L14.0936 35.5934L15.0227 35.2346L14.7164 34.2827L14.4101 33.3307L13.481 33.6895L13.7873 34.6415ZM15.8314 33.8521L16.1377 34.8041L17.0669 34.4453L16.7606 33.4933L16.4543 32.5414L15.5251 32.9002L15.8314 33.8521ZM17.8756 33.0628L18.1819 34.0147L19.1111 33.6559L18.8048 32.704L18.4985 31.752L17.5693 32.1108L17.8756 33.0628ZM19.9198 32.2734L20.2261 33.2253L21.1553 32.8665L20.849 31.9146L20.5427 30.9627L19.6135 31.3215L19.9198 32.2734ZM21.964 31.484L22.2703 32.436L23.1994 32.0772L22.8931 31.1252L22.5868 30.1733L21.6577 30.5321L21.964 31.484ZM24.0081 30.6947L24.3144 31.6466L25.2436 31.2878L24.9373 30.3359L24.631 29.3839L23.7018 29.7427L24.0081 30.6947ZM26.0523 29.9053L26.3586 30.8573L27.2878 30.4984L26.9815 29.5465L26.6752 28.5946L25.746 28.9534L26.0523 29.9053ZM28.0965 29.116L28.4028 30.0679L29.3319 29.7091L29.0256 28.7572L28.7193 27.8052L27.7902 28.164L28.0965 29.116ZM30.1406 28.3266L30.4469 29.2785L31.3761 28.9197L31.0698 27.9678L30.7635 27.0159L29.8343 27.3747L30.1406 28.3266ZM32.1848 27.5372L32.4911 28.4892L33.4203 28.1304L33.114 27.1784L32.8077 26.2265L31.8785 26.5853L32.1848 27.5372ZM34.229 26.7479L34.5353 27.6998L35.4645 27.341L35.1582 26.3891L34.8519 25.4371L33.9227 25.7959L34.229 26.7479ZM36.2732 25.9585L36.5795 26.9104L37.5086 26.5516L37.2023 25.5997L36.896 24.6478L35.9669 25.0066L36.2732 25.9585ZM38.3173 25.1691L38.6236 26.1211L39.5528 25.7623L39.2465 24.8103L38.9402 23.8584L38.011 24.2172L38.3173 25.1691ZM40.3615 24.3798L40.6678 25.3317L41.597 24.9729L41.2907 24.021L40.9844 23.0691L40.0552 23.4279L40.3615 24.3798ZM42.4057 23.5904L42.712 24.5424L43.6412 24.1836L43.3349 23.2316L43.0286 22.2797L42.0994 22.6385L42.4057 23.5904ZM44.4499 22.8011L44.7562 23.753L45.6853 23.3942L45.379 22.4423L45.0727 21.4903L44.1436 21.8491L44.4499 22.8011ZM46.494 22.0117L46.8003 22.9636L47.7295 22.6048L47.4232 21.6529L47.1169 20.701L46.1877 21.0598L46.494 22.0117ZM48.5382 21.2223L48.8445 22.1743L49.7737 21.8155L49.4674 20.8635L49.1611 19.9116L48.2319 20.2704L48.5382 21.2223ZM50.5824 20.433L50.8887 21.3849L51.8179 21.0261L51.5116 20.0742L51.2053 19.1222L50.2761 19.481L50.5824 20.433ZM52.6266 19.6436L52.9329 20.5956L53.862 20.2368L53.5557 19.2848L53.2494 18.3329L52.3203 18.6917L52.6266 19.6436ZM54.6707 18.8543L54.977 19.8062L55.9062 19.4474L55.5999 18.4955L55.2936 17.5435L54.3644 17.9023L54.6707 18.8543ZM56.7149 18.0649L57.0212 19.0168L57.9504 18.658L57.6441 17.7061L57.3378 16.7542L56.4086 17.113L56.7149 18.0649ZM58.7591 17.2755L59.0654 18.2275L59.9946 17.8687L59.6883 16.9167L59.382 15.9648L58.4528 16.3236L58.7591 17.2755ZM60.8033 16.4862L61.1096 17.4381L62.0387 17.0793L61.7324 16.1274L61.4261 15.1754L60.497 15.5342L60.8033 16.4862ZM62.8474 15.6968L63.1537 16.6487L64.0829 16.2899L63.7766 15.338L63.4703 14.3861L62.5411 14.7449L62.8474 15.6968ZM64.8916 14.9075L65.1979 15.8594L66.1271 15.5006L65.8208 14.5486L65.5145 13.5967L64.5853 13.9555L64.8916 14.9075ZM66.9358 14.1181L67.2421 15.07L68.1712 14.7112L67.8649 13.7593L67.5586 12.8074L66.6295 13.1662L66.9358 14.1181ZM68.9799 13.3287L69.2862 14.2807L70.2154 13.9219L69.9091 12.9699L69.6028 12.018L68.6736 12.3768L68.9799 13.3287ZM71.0241 12.5394L71.3304 13.4913L72.2596 13.1325L71.9533 12.1806L71.647 11.2286L70.7178 11.5874L71.0241 12.5394ZM73.0683 11.75L73.3746 12.7019L74.3038 12.3431L73.9975 11.3912L73.6912 10.4393L72.762 10.7981L73.0683 11.75ZM75.1125 10.9606L75.4188 11.9126L76.3479 11.5538L76.0416 10.6018L75.7353 9.64991L74.8062 10.0087L75.1125 10.9606ZM77.1566 10.1713L77.4629 11.1232L78.3921 10.7644L78.0858 9.81249L77.7795 8.86055L76.8503 9.21935L77.1566 10.1713ZM79.2008 9.38193L79.5071 10.3339L80.4363 9.97506L80.13 9.02313L79.8237 8.07119L78.8945 8.42999L79.2008 9.38193ZM81.245 8.59257L81.5513 9.5445L82.4804 9.1857L82.1741 8.23377L81.8678 7.28183L80.9387 7.64063L81.245 8.59257ZM83.2891 7.80321L83.5954 8.75514L84.5246 8.39634L84.2183 7.44441L83.912 6.49247L82.9828 6.85127L83.2891 7.80321ZM85.3333 7.01385L85.6396 7.96578L86.5688 7.60698L86.2625 6.65505L85.9562 5.70311L85.027 6.06191L85.3333 7.01385ZM87.8421 6.04509L76.745 4.15136L80.2818 15.1434L87.8421 6.04509ZM1.98682 39.1982L2.29311 40.1502L2.7577 39.9708L2.4514 39.0188L2.1451 38.0669L1.68052 38.2463L1.98682 39.1982ZM3.5664 38.5883L3.8727 39.5402L4.80187 39.1814L4.49557 38.2295L4.18928 37.2775L3.26011 37.6363L3.5664 38.5883ZM5.61058 37.7989L5.91688 38.7509L6.84604 38.3921L6.53975 37.4401L6.23345 36.4882L5.30428 36.847L5.61058 37.7989ZM7.65475 37.0096L7.96105 37.9615L8.89022 37.6027L8.58392 36.6508L8.27762 35.6988L7.34845 36.0576L7.65475 37.0096ZM9.69892 36.2202L10.0052 37.1721L10.9344 36.8133L10.6281 35.8614L10.3218 34.9095L9.39262 35.2683L9.69892 36.2202ZM11.7431 35.4308L12.0494 36.3828L12.9786 36.024L12.6723 35.072L12.366 34.1201L11.4368 34.4789L11.7431 35.4308ZM13.7873 34.6415L14.0936 35.5934L15.0227 35.2346L14.7164 34.2827L14.4101 33.3307L13.481 33.6895L13.7873 34.6415ZM15.8314 33.8521L16.1377 34.8041L17.0669 34.4453L16.7606 33.4933L16.4543 32.5414L15.5251 32.9002L15.8314 33.8521ZM17.8756 33.0628L18.1819 34.0147L19.1111 33.6559L18.8048 32.704L18.4985 31.752L17.5693 32.1108L17.8756 33.0628ZM19.9198 32.2734L20.2261 33.2253L21.1553 32.8665L20.849 31.9146L20.5427 30.9627L19.6135 31.3215L19.9198 32.2734ZM21.964 31.484L22.2703 32.436L23.1994 32.0772L22.8931 31.1252L22.5868 30.1733L21.6577 30.5321L21.964 31.484ZM24.0081 30.6947L24.3144 31.6466L25.2436 31.2878L24.9373 30.3359L24.631 29.3839L23.7018 29.7427L24.0081 30.6947ZM26.0523 29.9053L26.3586 30.8573L27.2878 30.4984L26.9815 29.5465L26.6752 28.5946L25.746 28.9534L26.0523 29.9053ZM28.0965 29.116L28.4028 30.0679L29.3319 29.7091L29.0256 28.7572L28.7193 27.8052L27.7902 28.164L28.0965 29.116ZM30.1406 28.3266L30.4469 29.2785L31.3761 28.9197L31.0698 27.9678L30.7635 27.0159L29.8343 27.3747L30.1406 28.3266ZM32.1848 27.5372L32.4911 28.4892L33.4203 28.1304L33.114 27.1784L32.8077 26.2265L31.8785 26.5853L32.1848 27.5372ZM34.229 26.7479L34.5353 27.6998L35.4645 27.341L35.1582 26.3891L34.8519 25.4371L33.9227 25.7959L34.229 26.7479ZM36.2732 25.9585L36.5795 26.9104L37.5086 26.5516L37.2023 25.5997L36.896 24.6478L35.9669 25.0066L36.2732 25.9585ZM38.3173 25.1691L38.6236 26.1211L39.5528 25.7623L39.2465 24.8103L38.9402 23.8584L38.011 24.2172L38.3173 25.1691ZM40.3615 24.3798L40.6678 25.3317L41.597 24.9729L41.2907 24.021L40.9844 23.0691L40.0552 23.4279L40.3615 24.3798ZM42.4057 23.5904L42.712 24.5424L43.6412 24.1836L43.3349 23.2316L43.0286 22.2797L42.0994 22.6385L42.4057 23.5904ZM44.4499 22.8011L44.7562 23.753L45.6853 23.3942L45.379 22.4423L45.0727 21.4903L44.1436 21.8491L44.4499 22.8011ZM46.494 22.0117L46.8003 22.9636L47.7295 22.6048L47.4232 21.6529L47.1169 20.701L46.1877 21.0598L46.494 22.0117ZM48.5382 21.2223L48.8445 22.1743L49.7737 21.8155L49.4674 20.8635L49.1611 19.9116L48.2319 20.2704L48.5382 21.2223ZM50.5824 20.433L50.8887 21.3849L51.8179 21.0261L51.5116 20.0742L51.2053 19.1222L50.2761 19.481L50.5824 20.433ZM52.6266 19.6436L52.9329 20.5956L53.862 20.2368L53.5557 19.2848L53.2494 18.3329L52.3203 18.6917L52.6266 19.6436ZM54.6707 18.8543L54.977 19.8062L55.9062 19.4474L55.5999 18.4955L55.2936 17.5435L54.3644 17.9023L54.6707 18.8543ZM56.7149 18.0649L57.0212 19.0168L57.9504 18.658L57.6441 17.7061L57.3378 16.7542L56.4086 17.113L56.7149 18.0649ZM58.7591 17.2755L59.0654 18.2275L59.9946 17.8687L59.6883 16.9167L59.382 15.9648L58.4528 16.3236L58.7591 17.2755ZM60.8033 16.4862L61.1096 17.4381L62.0387 17.0793L61.7324 16.1274L61.4261 15.1754L60.497 15.5342L60.8033 16.4862ZM62.8474 15.6968L63.1537 16.6487L64.0829 16.2899L63.7766 15.338L63.4703 14.3861L62.5411 14.7449L62.8474 15.6968ZM64.8916 14.9075L65.1979 15.8594L66.1271 15.5006L65.8208 14.5486L65.5145 13.5967L64.5853 13.9555L64.8916 14.9075ZM66.9358 14.1181L67.2421 15.07L68.1712 14.7112L67.8649 13.7593L67.5586 12.8074L66.6295 13.1662L66.9358 14.1181ZM68.9799 13.3287L69.2862 14.2807L70.2154 13.9219L69.9091 12.9699L69.6028 12.018L68.6736 12.3768L68.9799 13.3287ZM71.0241 12.5394L71.3304 13.4913L72.2596 13.1325L71.9533 12.1806L71.647 11.2286L70.7178 11.5874L71.0241 12.5394ZM73.0683 11.75L73.3746 12.7019L74.3038 12.3431L73.9975 11.3912L73.6912 10.4393L72.762 10.7981L73.0683 11.75ZM75.1125 10.9606L75.4188 11.9126L76.3479 11.5538L76.0416 10.6018L75.7353 9.64991L74.8062 10.0087L75.1125 10.9606ZM77.1566 10.1713L77.4629 11.1232L78.3921 10.7644L78.0858 9.81249L77.7795 8.86055L76.8503 9.21935L77.1566 10.1713ZM79.2008 9.38193L79.5071 10.3339L80.4363 9.97506L80.13 9.02313L79.8237 8.07119L78.8945 8.42999L79.2008 9.38193ZM81.245 8.59257L81.5513 9.5445L82.4804 9.1857L82.1741 8.23377L81.8678 7.28183L80.9387 7.64063L81.245 8.59257ZM83.2891 7.80321L83.5954 8.75514L84.5246 8.39634L84.2183 7.44441L83.912 6.49247L82.9828 6.85127L83.2891 7.80321ZM85.3333 7.01385L85.6396 7.96578L86.5688 7.60698L86.2625 6.65505L85.9562 5.70311L85.027 6.06191L85.3333 7.01385Z" fill="black"/>
</svg>
