<svg width="52" height="22" viewBox="0 0 52 22" fill="none" xmlns="http://www.w3.org/2000/svg">
<path d="M51 21L46.2903 6.31532C44.9434 2.14778 43.7043 1.03377 40.7204 1H11.2796C8.29573 1.03377 7.05655 2.14778 5.70973 6.31532L1 21" stroke="black" stroke-width="1.5"/>
<path d="M49.8487 19.2883L44.4223 12.5389L41.2903 20.613L49.8487 19.2883ZM7.30772 3.59114L43.2843 17.5464L43.8268 16.148L7.85018 2.19267L7.30772 3.59114Z" fill="black"/>
<path d="M44.421 3.52251L36.0982 2.10222L38.7509 10.3462L44.421 3.52251ZM1.72313 20.813L2.18772 20.6336L1.72827 19.2057L1.26368 19.3851L1.72313 20.813ZM3.30272 20.2031L4.23189 19.8443L3.77244 18.4164L2.84327 18.7752L3.30272 20.2031ZM5.34689 19.4137L6.27606 19.0549L5.81661 17.627L4.88745 17.9858L5.34689 19.4137ZM7.39107 18.6244L8.32023 18.2656L7.86079 16.8377L6.93162 17.1965L7.39107 18.6244ZM9.43524 17.835L10.3644 17.4762L9.90496 16.0483L8.97579 16.4071L9.43524 17.835ZM11.4794 17.0456L12.4086 16.6868L11.9491 15.2589L11.02 15.6177L11.4794 17.0456ZM13.5236 16.2563L14.4528 15.8975L13.9933 14.4696L13.0641 14.8284L13.5236 16.2563ZM15.5678 15.4669L16.4969 15.1081L16.0375 13.6802L15.1083 14.039L15.5678 15.4669ZM17.6119 14.6776L18.5411 14.3188L18.0816 12.8909L17.1525 13.2497L17.6119 14.6776ZM19.6561 13.8882L20.5853 13.5294L20.1258 12.1015L19.1967 12.4603L19.6561 13.8882ZM21.7003 13.0988L22.6294 12.74L22.17 11.3121L21.2408 11.6709L21.7003 13.0988ZM23.7444 12.3095L24.6736 11.9507L24.2142 10.5228L23.285 10.8816L23.7444 12.3095ZM25.7886 11.5201L26.7178 11.1613L26.2583 9.73341L25.3292 10.0922L25.7886 11.5201ZM27.8328 10.7308L28.762 10.372L28.3025 8.94405L27.3733 9.30285L27.8328 10.7308ZM29.877 9.94139L30.8061 9.58259L30.3467 8.15469L29.4175 8.51349L29.877 9.94139ZM31.9211 9.15203L32.8503 8.79323L32.3909 7.36533L31.4617 7.72413L31.9211 9.15203ZM33.9653 8.36267L34.8945 8.00387L34.435 6.57597L33.5059 6.93477L33.9653 8.36267ZM36.0095 7.57331L36.9386 7.21451L36.4792 5.78661L35.55 6.14541L36.0095 7.57331ZM38.0537 6.78395L38.9828 6.42515L38.5234 4.99724L37.5942 5.35605L38.0537 6.78395ZM40.0978 5.99459L41.027 5.63579L40.5675 4.20788L39.6384 4.56668L40.0978 5.99459ZM42.142 5.20523L43.0712 4.84643L42.6117 3.41852L41.6826 3.77732L42.142 5.20523ZM44.421 3.52251L36.0982 2.10222L38.7509 10.3462L44.421 3.52251ZM1.72313 20.813L2.18772 20.6336L1.72827 19.2057L1.26368 19.3851L1.72313 20.813ZM3.30272 20.2031L4.23189 19.8443L3.77244 18.4164L2.84327 18.7752L3.30272 20.2031ZM5.34689 19.4137L6.27606 19.0549L5.81661 17.627L4.88745 17.9858L5.34689 19.4137ZM7.39107 18.6244L8.32023 18.2656L7.86079 16.8377L6.93162 17.1965L7.39107 18.6244ZM9.43524 17.835L10.3644 17.4762L9.90496 16.0483L8.97579 16.4071L9.43524 17.835ZM11.4794 17.0456L12.4086 16.6868L11.9491 15.2589L11.02 15.6177L11.4794 17.0456ZM13.5236 16.2563L14.4528 15.8975L13.9933 14.4696L13.0641 14.8284L13.5236 16.2563ZM15.5678 15.4669L16.4969 15.1081L16.0375 13.6802L15.1083 14.039L15.5678 15.4669ZM17.6119 14.6776L18.5411 14.3188L18.0816 12.8909L17.1525 13.2497L17.6119 14.6776ZM19.6561 13.8882L20.5853 13.5294L20.1258 12.1015L19.1967 12.4603L19.6561 13.8882ZM21.7003 13.0988L22.6294 12.74L22.17 11.3121L21.2408 11.6709L21.7003 13.0988ZM23.7444 12.3095L24.6736 11.9507L24.2142 10.5228L23.285 10.8816L23.7444 12.3095ZM25.7886 11.5201L26.7178 11.1613L26.2583 9.73341L25.3292 10.0922L25.7886 11.5201ZM27.8328 10.7308L28.762 10.372L28.3025 8.94405L27.3733 9.30285L27.8328 10.7308ZM29.877 9.94139L30.8061 9.58259L30.3467 8.15469L29.4175 8.51349L29.877 9.94139ZM31.9211 9.15203L32.8503 8.79323L32.3909 7.36533L31.4617 7.72413L31.9211 9.15203ZM33.9653 8.36267L34.8945 8.00387L34.435 6.57597L33.5059 6.93477L33.9653 8.36267ZM36.0095 7.57331L36.9386 7.21451L36.4792 5.78661L35.55 6.14541L36.0095 7.57331ZM38.0537 6.78395L38.9828 6.42515L38.5234 4.99724L37.5942 5.35605L38.0537 6.78395ZM40.0978 5.99459L41.027 5.63579L40.5675 4.20788L39.6384 4.56668L40.0978 5.99459ZM42.142 5.20523L43.0712 4.84643L42.6117 3.41852L41.6826 3.77732L42.142 5.20523Z" fill="black"/>
</svg>
