<svg xmlns="http://www.w3.org/2000/svg" viewBox="0 0 800 800"><path fill="none" stroke="#000" class="dcg-svg-curve" paint-order="fill stroke markers" d="M0 36.558h0l1.953 5.078 2.149 7.026 2.343 9.303 2.54 11.893 2.93 15.893 3.124 19.281 3.516 24.22 4.101 31.11 5.078 41.809 7.032 61.644 14.257 125.804 5.664 45.95 4.688 34.857 4.102 27.64 3.71 22.42 3.516 18.787 3.125 14.59 2.93 11.814 2.734 9.365 2.54 7.245 2.343 5.445 2.344 4.255 2.148 2.866 1.953 1.757 1.758.902 1.636.27 1.49-.22 1.757-.823 1.758-1.415 2.148-2.509 2.344-3.676 2.539-5.035 2.734-6.57 2.93-8.262 3.32-10.748 3.711-13.543 4.297-17.369 5.274-23.211 7.422-34.807 13.476-63.425 5.664-24.563 4.883-19.385 4.297-15.387 3.906-12.454 3.711-10.365 3.32-7.997 3.125-6.39 3.125-5.268 2.93-3.91 2.734-2.755 2.54-1.79 2.343-1.01 2.149-.39 2.148.107 2.344.669 2.344 1.225 2.539 1.929 2.93 2.96 3.32 4.244 3.71 5.758 4.102 7.462 4.492 9.286 5.47 12.526 7.226 17.872 16.992 42.47 5.86 13.173 5.077 10.29 4.688 8.391 4.297 6.65 4.297 5.582 3.906 4.108 3.515 2.895 3.32 2.032 3.126 1.296 3.125.707 2.93.143 3.124-.384 3.125-.912 3.32-1.516 3.712-2.312 4.101-3.244 4.492-4.278 5.47-6.05 6.835-8.521 11.719-15.789 11.133-14.614 7.03-8.258 5.86-6.012 5.274-4.603 4.687-3.384 4.492-2.584 4.297-1.852 4.102-1.2 4.101-.655 4.102-.125 4.297.41 4.492.984 4.688 1.574 5.078 2.263 5.86 3.211 7.03 4.495 10.352 7.338 15.234 10.747 7.813 4.822 6.64 3.483 6.055 2.588 5.664 1.866 5.469 1.271 5.469.747 5.664.234 5.664-.284 6.054-.827 6.641-1.448 7.617-2.221 9.57-3.374 29.883-10.934 8.594-2.347 7.813-1.597 7.617-1.017 7.422-.47 7.812.038 8.203.57 9.18 1.17 11.328 1.996 39.063 7.338 10.742 1.201 10.156.617 10.352.108 11.132-.408 13.282-1.033 22.07-2.346 20.703-1.988 14.649-.878 14.062-.315 3.711.002" stroke-linecap="round" stroke-linejoin="round" stroke-miterlimit="10" stroke-width="2.5" stroke-opacity=".9"/></svg>