<svg width="302" height="306" viewBox="0 0 302 306" fill="none" xmlns="http://www.w3.org/2000/svg"  stroke-width="3">
<path d="M1 291.368C1 291.368 3.18843 291.346 7.72414 288.945C16.5172 284.292 19.6207 280.706 19.6207 280.706C19.6207 280.706 29.2315 271.948 31.5172 270.044C36.1724 266.167 39.7931 266.167 42.8966 266.167H42.9324C46.0184 266.167 48.4048 266.167 53.7586 270.044C57.3893 272.673 60.4828 277.314 63.5862 282.16C71.3448 294.276 72.3793 303 75.4828 303C78.5862 303 82.2069 291.853 82.2069 291.853L94.6207 245.811L100.828 218.186L107.552 182.807C124.512 99.786 134.448 2.51715 151 3.0018C167.552 2.51715 177.488 99.786 194.448 182.807L201.172 218.186L207.379 245.811L219.793 291.853C219.793 291.853 223.414 303 226.517 303C229.621 303 230.655 294.276 238.414 282.16C241.517 277.314 244.611 272.673 248.241 270.044C253.595 266.167 255.982 266.167 259.068 266.167H259.103C262.207 266.167 265.828 266.167 270.483 270.044C272.768 271.948 282.379 280.706 282.379 280.706C282.379 280.706 285.483 284.292 294.276 288.945C298.812 291.346 301 291.368 301 291.368" stroke="black"/>
</svg>
