<svg width="106" height="180" viewBox="0 0 106 180" fill="none" xmlns="http://www.w3.org/2000/svg">
<path d="M103 178C103 178 77.2268 33.6389 53 34.3296C28.7732 35.0204 3 178 3 178" stroke="black" stroke-width="6"/>
<path d="M103 178C103 178 77.2268 2.16166 53 3.00301C28.7732 3.84436 3 178 3 178" stroke="black" stroke-width="6"/>
<path d="M103 178C103 178 77.2268 65.1161 53 65.6563C28.7732 66.1964 3 178 3 178" stroke="black" stroke-width="6"/>
<path d="M103 178C103 178 77.2268 97.6788 53 98.0631C28.7732 98.4474 3 178 3 178" stroke="black" stroke-width="6"/>
<path d="M103 178C103 178 77.2268 128.071 53 128.31C28.7732 128.548 3 178 3 178" stroke="black" stroke-width="6"/>
</svg>
