<svg width="312" height="117" viewBox="0 0 312 117" fill="none" xmlns="http://www.w3.org/2000/svg">
<path d="M279.365 33.5L282.667 32.3398L282.664 32.3319L279.365 33.5ZM245.5 4L245.536 0.500186L245.518 0.5H245.5V4ZM32.6351 33.5L29.3358 32.3319L29.333 32.3398L32.6351 33.5ZM66.5 4V0.5H66.4819L66.4638 0.500186L66.5 4ZM266 16L226.176 9.11712L240.127 47.0472L266 16ZM311.302 113.84L282.667 32.3398L276.063 34.6602L304.698 116.16L311.302 113.84ZM282.664 32.3319C278.537 20.6751 274.361 12.5901 268.45 7.49548C262.374 2.25841 254.978 0.597725 245.536 0.500186L245.464 7.49981C254.164 7.5897 259.606 9.11411 263.88 12.7977C268.319 16.6238 272.004 23.1951 276.066 34.6681L282.664 32.3319ZM7.30211 116.16L8.36419 113.137L1.75997 110.817L0.697889 113.84L7.30211 116.16ZM8.36419 113.137L35.9372 34.6602L29.333 32.3398L1.75997 110.817L8.36419 113.137ZM35.9345 34.6681C39.9963 23.1951 43.6811 16.6238 48.1202 12.7977C52.3939 9.11411 57.8357 7.5897 66.5362 7.49981L66.4638 0.500186C57.0223 0.597724 49.6261 2.25841 43.55 7.49548C37.6393 12.5901 33.4627 20.6751 29.3358 32.3319L35.9345 34.6681ZM245.5 0.5H66.5V7.5H245.5V0.5ZM6.20832 115.285L6.27039 115.262L3.85376 108.692L3.79168 108.715L6.20832 115.285ZM6.2703 115.262L237.645 30.1588L235.228 23.5891L3.85386 108.692L6.2703 115.262Z" fill="black"/>
</svg>
