<svg width="52" height="22" viewBox="0 0 52 22" fill="none" xmlns="http://www.w3.org/2000/svg">
<path d="M46.2903 6.31532L47.0044 6.08626L47.0039 6.08468L46.2903 6.31532ZM40.7204 1L40.7289 0.25H40.7204V1ZM5.70973 6.31532L4.99607 6.08468L4.99556 6.08626L5.70973 6.31532ZM11.2796 1L11.2796 0.249952L11.2711 0.250048L11.2796 1ZM49.8487 19.2883L44.4223 12.5389L41.2903 20.613L49.8487 19.2883ZM51.7142 20.7709L47.0044 6.08626L45.5761 6.54437L50.2858 21.2291L51.7142 20.7709ZM47.0039 6.08468C46.3262 3.98741 45.6335 2.50577 44.6341 1.56218C43.5895 0.575816 42.3139 0.267987 40.7289 0.250048L40.7119 1.74995C42.1107 1.76578 42.9467 2.03185 43.6043 2.65281C44.3073 3.31656 44.9076 4.47569 45.5766 6.54595L47.0039 6.08468ZM1.71417 21.2291L6.42389 6.54437L4.99556 6.08626L0.285832 20.7709L1.71417 21.2291ZM6.42338 6.54595C7.09243 4.47569 7.69273 3.31656 8.39568 2.65281C9.05332 2.03185 9.88926 1.76578 11.2881 1.74995L11.2711 0.250048C9.68607 0.267986 8.41048 0.575816 7.36586 1.56218C6.36654 2.50577 5.67384 3.98741 4.99607 6.08468L6.42338 6.54595ZM40.7204 0.25H11.2796V1.75H40.7204V0.25ZM7.30771 3.59113L43.2843 17.5464L43.8268 16.1479L7.85018 2.19265L7.30771 3.59113Z" fill="black"/>
</svg>
