<svg width="312" height="117" viewBox="0 0 312 117" fill="none" xmlns="http://www.w3.org/2000/svg">
<path d="M279.365 33.5L282.667 32.3398L282.664 32.3319L279.365 33.5ZM245.5 4L245.536 0.500187L245.518 0.5H245.5V4ZM32.6351 33.5L29.3358 32.3319L29.333 32.3398L32.6351 33.5ZM66.5 4V0.5H66.4819L66.4638 0.500187L66.5 4ZM301 105.5L274.752 74.7693L261.262 112.866L301 105.5ZM311.302 113.84L282.667 32.3398L276.063 34.6602L304.698 116.16L311.302 113.84ZM282.664 32.3319C278.537 20.6751 274.361 12.5901 268.45 7.49548C262.374 2.25841 254.978 0.597725 245.536 0.500187L245.464 7.49981C254.164 7.5897 259.606 9.11411 263.88 12.7977C268.319 16.6238 272.004 23.1951 276.066 34.6681L282.664 32.3319ZM7.30211 116.16L35.9372 34.6602L29.333 32.3398L0.69789 113.84L7.30211 116.16ZM35.9345 34.6681C39.9963 23.1951 43.6811 16.6238 48.1202 12.7977C52.3939 9.11411 57.8357 7.5897 66.5362 7.49981L66.4638 0.500187C57.0223 0.597725 49.6261 2.25841 43.55 7.49548C37.6393 12.5901 33.4627 20.6751 29.3358 32.3319L35.9345 34.6681ZM245.5 0.5H66.5V7.5H245.5V0.5ZM42.8318 17.7993L270.138 98.2852L272.475 91.6867L45.1682 11.2007L42.8318 17.7993Z" fill="black"/>
</svg>
