<svg width="312" height="117" viewBox="0 0 312 117" fill="none" xmlns="http://www.w3.org/2000/svg">
<path d="M308 115L279.365 33.5C271.176 10.3702 263.642 4.18742 245.5 4H66.5C48.358 4.18742 40.8238 10.3702 32.6351 33.5L4.00001 115" stroke="black" stroke-width="7"/>
<path d="M301 105.5L274.752 74.7693L261.262 112.866L301 105.5ZM42.8318 17.7993L270.138 98.2852L272.475 91.6867L45.1682 11.2007L42.8318 17.7993Z" fill="black"/>
<path d="M268 18L228.273 10.5775L241.708 48.6934L268 18ZM8.16355 113.301L12.7265 111.693L10.3994 105.091L5.83645 106.699L8.16355 113.301ZM23.6775 107.832L32.8034 104.616L30.4763 98.0138L21.3504 101.231L23.6775 107.832ZM43.7545 100.755L52.8803 97.5387L50.5532 90.9368L41.4274 94.1536L43.7545 100.755ZM63.8314 93.6786L72.9573 90.4618L70.6302 83.8599L61.5043 87.0767L63.8314 93.6786ZM83.9083 86.6016L93.0342 83.3848L90.7071 76.783L81.5812 79.9998L83.9083 86.6016ZM103.985 79.5247L113.111 76.3079L110.784 69.7061L101.658 72.9228L103.985 79.5247ZM124.062 72.4478L133.188 69.231L130.861 62.6291L121.735 65.8459L124.062 72.4478ZM144.139 65.3709L153.265 62.1541L150.938 55.5522L141.812 58.769L144.139 65.3709ZM164.216 58.2939L173.342 55.0772L171.015 48.4753L161.889 51.6921L164.216 58.2939ZM184.293 51.217L193.419 48.0002L191.092 41.3984L181.966 44.6152L184.293 51.217ZM204.37 44.1401L213.496 40.9233L211.169 34.3214L202.043 37.5382L204.37 44.1401ZM224.447 37.0632L233.573 33.8464L231.246 27.2445L222.12 30.4613L224.447 37.0632ZM244.524 29.9862L253.65 26.7695L251.322 20.1676L242.197 23.3844L244.524 29.9862ZM268 18L228.273 10.5775L241.708 48.6934L268 18ZM8.16355 113.301L12.7265 111.693L10.3994 105.091L5.83645 106.699L8.16355 113.301ZM23.6775 107.832L32.8034 104.616L30.4763 98.0138L21.3504 101.231L23.6775 107.832ZM43.7545 100.755L52.8803 97.5387L50.5532 90.9368L41.4274 94.1536L43.7545 100.755ZM63.8314 93.6786L72.9573 90.4618L70.6302 83.8599L61.5043 87.0767L63.8314 93.6786ZM83.9083 86.6016L93.0342 83.3848L90.7071 76.783L81.5812 79.9998L83.9083 86.6016ZM103.985 79.5247L113.111 76.3079L110.784 69.7061L101.658 72.9228L103.985 79.5247ZM124.062 72.4478L133.188 69.231L130.861 62.6291L121.735 65.8459L124.062 72.4478ZM144.139 65.3709L153.265 62.1541L150.938 55.5522L141.812 58.769L144.139 65.3709ZM164.216 58.2939L173.342 55.0772L171.015 48.4753L161.889 51.6921L164.216 58.2939ZM184.293 51.217L193.419 48.0002L191.092 41.3984L181.966 44.6152L184.293 51.217ZM204.37 44.1401L213.496 40.9233L211.169 34.3214L202.043 37.5382L204.37 44.1401ZM224.447 37.0632L233.573 33.8464L231.246 27.2445L222.12 30.4613L224.447 37.0632ZM244.524 29.9862L253.65 26.7695L251.322 20.1676L242.197 23.3844L244.524 29.9862Z" fill="black"/>
</svg>
