<svg width="52" height="22" viewBox="0 0 52 22" fill="none" xmlns="http://www.w3.org/2000/svg">
<path d="M51 21L46.2903 6.31532C44.9434 2.14778 43.7043 1.03377 40.7204 1H11.2796C8.29573 1.03377 7.05655 2.14778 5.70973 6.31532L1 21" stroke="black" stroke-width="1.5"/>
<path d="M49.8487 19.2883L44.4223 12.5389L41.2903 20.613L49.8487 19.2883ZM7.30772 3.59111L7.76518 3.76856L8.30765 2.37009L7.85018 2.19264L7.30772 3.59111ZM8.8631 4.19444L9.77802 4.54934L10.3205 3.15087L9.40556 2.79597L8.8631 4.19444ZM10.8759 4.97522L11.7909 5.33012L12.3333 3.93165L11.4184 3.57675L10.8759 4.97522ZM12.8888 5.75601L13.8037 6.11091L14.3462 4.71243L13.4313 4.35753L12.8888 5.75601ZM14.9016 6.53679L15.8166 6.89169L16.359 5.49321L15.4441 5.13831L14.9016 6.53679ZM16.9145 7.31757L17.8294 7.67247L18.3719 6.27399L17.4569 5.91909L16.9145 7.31757ZM18.9273 8.09835L19.8422 8.45325L20.3847 7.05477L19.4698 6.69987L18.9273 8.09835ZM20.9402 8.87913L21.8551 9.23403L22.3976 7.83555L21.4826 7.48065L20.9402 8.87913ZM22.953 9.65991L23.8679 10.0148L24.4104 8.61633L23.4955 8.26143L22.953 9.65991ZM24.9659 10.4407L25.8808 10.7956L26.4232 9.39712L25.5083 9.04222L24.9659 10.4407ZM26.9787 11.2215L27.8936 11.5764L28.4361 10.1779L27.5212 9.823L26.9787 11.2215ZM28.9915 12.0023L29.9065 12.3572L30.4489 10.9587L29.534 10.6038L28.9915 12.0023ZM31.0044 12.783L31.9193 13.1379L32.4618 11.7395L31.5469 11.3846L31.0044 12.783ZM33.0172 13.5638L33.9322 13.9187L34.4746 12.5202L33.5597 12.1653L33.0172 13.5638ZM35.0301 14.3446L35.945 14.6995L36.4875 13.301L35.5725 12.9461L35.0301 14.3446ZM37.0429 15.1254L37.9579 15.4803L38.5003 14.0818L37.5854 13.7269L37.0429 15.1254ZM39.0558 15.9062L39.9707 16.2611L40.5132 14.8626L39.5982 14.5077L39.0558 15.9062ZM41.0686 16.6869L41.9835 17.0418L42.526 15.6434L41.6111 15.2885L41.0686 16.6869ZM43.0815 17.4677L43.9964 17.8226L44.5388 16.4241L43.6239 16.0692L43.0815 17.4677ZM45.0943 18.2485L46.0092 18.6034L46.5517 17.2049L45.6368 16.85L45.0943 18.2485ZM47.1071 19.0293L48.0221 19.3842L48.5645 17.9857L47.6496 17.6308L47.1071 19.0293ZM49.8487 19.2883L44.4223 12.5389L41.2903 20.613L49.8487 19.2883ZM7.30772 3.59111L7.76518 3.76856L8.30765 2.37009L7.85018 2.19264L7.30772 3.59111ZM8.8631 4.19444L9.77802 4.54934L10.3205 3.15087L9.40556 2.79597L8.8631 4.19444ZM10.8759 4.97522L11.7909 5.33012L12.3333 3.93165L11.4184 3.57675L10.8759 4.97522ZM12.8888 5.75601L13.8037 6.11091L14.3462 4.71243L13.4313 4.35753L12.8888 5.75601ZM14.9016 6.53679L15.8166 6.89169L16.359 5.49321L15.4441 5.13831L14.9016 6.53679ZM16.9145 7.31757L17.8294 7.67247L18.3719 6.27399L17.4569 5.91909L16.9145 7.31757ZM18.9273 8.09835L19.8422 8.45325L20.3847 7.05477L19.4698 6.69987L18.9273 8.09835ZM20.9402 8.87913L21.8551 9.23403L22.3976 7.83555L21.4826 7.48065L20.9402 8.87913ZM22.953 9.65991L23.8679 10.0148L24.4104 8.61633L23.4955 8.26143L22.953 9.65991ZM24.9659 10.4407L25.8808 10.7956L26.4232 9.39712L25.5083 9.04222L24.9659 10.4407ZM26.9787 11.2215L27.8936 11.5764L28.4361 10.1779L27.5212 9.823L26.9787 11.2215ZM28.9915 12.0023L29.9065 12.3572L30.4489 10.9587L29.534 10.6038L28.9915 12.0023ZM31.0044 12.783L31.9193 13.1379L32.4618 11.7395L31.5469 11.3846L31.0044 12.783ZM33.0172 13.5638L33.9322 13.9187L34.4746 12.5202L33.5597 12.1653L33.0172 13.5638ZM35.0301 14.3446L35.945 14.6995L36.4875 13.301L35.5725 12.9461L35.0301 14.3446ZM37.0429 15.1254L37.9579 15.4803L38.5003 14.0818L37.5854 13.7269L37.0429 15.1254ZM39.0558 15.9062L39.9707 16.2611L40.5132 14.8626L39.5982 14.5077L39.0558 15.9062ZM41.0686 16.6869L41.9835 17.0418L42.526 15.6434L41.6111 15.2885L41.0686 16.6869ZM43.0815 17.4677L43.9964 17.8226L44.5388 16.4241L43.6239 16.0692L43.0815 17.4677ZM45.0943 18.2485L46.0092 18.6034L46.5517 17.2049L45.6368 16.85L45.0943 18.2485ZM47.1071 19.0293L48.0221 19.3842L48.5645 17.9857L47.6496 17.6308L47.1071 19.0293Z" fill="black"/>
<path d="M44.421 3.52251L36.0982 2.10222L38.7509 10.3462L44.421 3.52251ZM1.72313 20.813L38.3539 6.668L37.8945 5.2401L1.26368 19.3851L1.72313 20.813Z" fill="black"/>
</svg>
