<svg width="312" height="117" viewBox="0 0 312 117" fill="none" xmlns="http://www.w3.org/2000/svg">
<path d="M308 115L279.365 33.5C271.176 10.3702 263.642 4.18742 245.5 4H66.5C48.358 4.18742 40.8238 10.3702 32.6351 33.5L4 115" stroke="black" stroke-width="7"/>
<path d="M301 105.5L274.752 74.7693L261.262 112.866L301 105.5ZM42.8318 17.7993L47.6992 19.5228L50.0357 12.9242L45.1682 11.2007L42.8318 17.7993ZM59.381 23.6591L69.1159 27.1061L71.4523 20.5075L61.7175 17.0606L59.381 23.6591ZM80.7977 31.2425L90.5325 34.6894L92.869 28.0909L83.1341 24.6439L80.7977 31.2425ZM102.214 38.8258L111.949 42.2728L114.286 35.6742L104.551 32.2272L102.214 38.8258ZM123.631 46.4091L133.366 49.8561L135.702 43.2575L125.967 39.8106L123.631 46.4091ZM145.048 53.9925L154.783 57.4394L157.119 50.8409L147.384 47.3939L145.048 53.9925ZM166.464 61.5758L176.199 65.0228L178.536 58.4242L168.801 54.9772L166.464 61.5758ZM187.881 69.1591L197.616 72.6061L199.952 66.0075L190.217 62.5606L187.881 69.1591ZM209.298 76.7425L219.033 80.1894L221.369 73.5909L211.634 70.1439L209.298 76.7425ZM230.714 84.3258L240.449 87.7728L242.786 81.1742L233.051 77.7272L230.714 84.3258ZM252.131 91.9091L261.866 95.3561L264.202 88.7575L254.467 85.3106L252.131 91.9091ZM273.548 99.4925L283.283 102.939L285.619 96.3409L275.884 92.8939L273.548 99.4925ZM301 105.5L274.752 74.7693L261.262 112.866L301 105.5ZM42.8318 17.7993L47.6992 19.5228L50.0357 12.9242L45.1682 11.2007L42.8318 17.7993ZM59.381 23.6591L69.1159 27.1061L71.4523 20.5075L61.7175 17.0606L59.381 23.6591ZM80.7977 31.2425L90.5325 34.6894L92.869 28.0909L83.1341 24.6439L80.7977 31.2425ZM102.214 38.8258L111.949 42.2728L114.286 35.6742L104.551 32.2272L102.214 38.8258ZM123.631 46.4091L133.366 49.8561L135.702 43.2575L125.967 39.8106L123.631 46.4091ZM145.048 53.9925L154.783 57.4394L157.119 50.8409L147.384 47.3939L145.048 53.9925ZM166.464 61.5758L176.199 65.0228L178.536 58.4242L168.801 54.9772L166.464 61.5758ZM187.881 69.1591L197.616 72.6061L199.952 66.0075L190.217 62.5606L187.881 69.1591ZM209.298 76.7425L219.033 80.1894L221.369 73.5909L211.634 70.1439L209.298 76.7425ZM230.714 84.3258L240.449 87.7728L242.786 81.1742L233.051 77.7272L230.714 84.3258ZM252.131 91.9091L261.866 95.3561L264.202 88.7575L254.467 85.3106L252.131 91.9091ZM273.548 99.4925L283.283 102.939L285.619 96.3409L275.884 92.8939L273.548 99.4925Z" fill="black"/>
<path d="M268 18L228.273 10.5775L241.708 48.6934L268 18ZM8.16355 113.301L239.455 31.7729L237.128 25.171L5.83645 106.699L8.16355 113.301Z" fill="black"/>
</svg>
