<svg width="104" height="178" viewBox="0 0 104 178" fill="none" xmlns="http://www.w3.org/2000/svg">
<path d="M102 177C102 177 76.2268 32.6389 52 33.3296C27.7732 34.0204 2 177 2 177" stroke="black" stroke-width="3"/>
<path d="M102 177C102 177 76.2268 1.16166 52 2.00301C27.7732 2.84436 2 177 2 177" stroke="black" stroke-width="3"/>
<path d="M102 177C102 177 76.2268 64.1161 52 64.6563C27.7732 65.1964 2 177 2 177" stroke="black" stroke-width="3"/>
<path d="M102 177C102 177 76.2268 96.6788 52 97.0631C27.7732 97.4474 2 177 2 177" stroke="black" stroke-width="3"/>
<path d="M102 177C102 177 76.2268 127.071 52 127.31C27.7732 127.548 2 177 2 177" stroke="black" stroke-width="3"/>
</svg>
